<?xml version="1.0" standalone="no"?>
<!DOCTYPE svg PUBLIC "-//W3C//DTD SVG 1.1//EN" "http://www.w3.org/Graphics/SVG/1.1/DTD/svg11.dtd" >
<!--
2013-9-30: Created.
-->
<svg>
<metadata>
Created by iconfont
</metadata>
<defs>

<font id="iconfont" horiz-adv-x="1024" >
  <font-face
    font-family="iconfont"
    font-weight="500"
    font-stretch="normal"
    units-per-em="1024"
    ascent="896"
    descent="-128"
  />
    <missing-glyph />
    
    <glyph glyph-name="x" unicode="x" horiz-adv-x="1001"
d="M281 543q-27 -1 -53 -1h-83q-18 0 -36.5 -6t-32.5 -18.5t-23 -32t-9 -45.5v-76h912v41q0 16 -0.5 30t-0.5 18q0 13 -5 29t-17 29.5t-31.5 22.5t-49.5 9h-133v-97h-438v97zM955 310v-52q0 -23 0.5 -52t0.5 -58t-10.5 -47.5t-26 -30t-33 -16t-31.5 -4.5q-14 -1 -29.5 -0.5
t-29.5 0.5h-32l-45 128h-439l-44 -128h-29h-34q-20 0 -45 1q-25 0 -41 9.5t-25.5 23t-13.5 29.5t-4 30v167h911zM163 247q-12 0 -21 -8.5t-9 -21.5t9 -21.5t21 -8.5q13 0 22 8.5t9 21.5t-9 21.5t-22 8.5zM316 123q-8 -26 -14 -48q-5 -19 -10.5 -37t-7.5 -25t-3 -15t1 -14.5
t9.5 -10.5t21.5 -4h37h67h81h80h64h36q23 0 34 12t2 38q-5 13 -9.5 30.5t-9.5 34.5q-5 19 -11 39h-368zM336 498v228q0 11 2.5 23t10 21.5t20.5 15.5t34 6h188q31 0 51.5 -14.5t20.5 -52.5v-227h-327z" />
    

    
    <glyph glyph-name="fenxiang" unicode="&#58881;" d="M837.633 215.604c-51.050 0-96.311-24.425-125.031-62.136l-330.361 196.715c3.755 14.471 5.956 29.549 5.956 45.192 0 4.543-0.356 8.968-0.672 13.414l330.516 199.147c28.851-33.775 71.685-55.262 119.591-55.262 86.881 0 157.306 70.432 157.306 157.305s-70.428 157.302-157.306 157.302c-86.876 0-157.299-70.427-157.299-157.301 0-17.238 2.856-33.755 7.982-49.281l-327.708-169.932c-31.824 50.631-87.999 84.381-152.182 84.381-99.276 0-179.772-80.491-179.772-179.772s80.497-179.77 179.772-179.77c53.214 0 100.878 23.257 133.799 59.995l343.369-177.595c-3.302-12.693-5.241-25.952-5.241-39.706 0-86.879 70.431-157.303 157.306-157.303 86.876 0 157.299 70.426 157.299 157.303 0 86.878-70.446 157.303-157.327 157.303v0zM837.633 215.604z"  horiz-adv-x="1024" />

    
    <glyph glyph-name="301" unicode="&#58890;" d="M129.342 46.217l3.011-3.345c97.187-108.324 235.834-170.446 380.365-170.446 235.677 0 438.964 159.171 495.871 387.606l-79.75 34.122c-40.634-192.445-218.687-341.3-416.111-341.3-115.487 0-223.172 59.282-303.2 143.62l-3.975 4.191 141.992 101.437-346.382 148.446v-395.89l128.179 91.559zM677.929 565.918l346.362-148.447v395.871l-128.179-91.559-3.011 3.345c-97.186 108.324-235.833 170.446-380.384 170.446-235.165 0-438.334-158.738-495.576-386.603l79.14-32.772c41.44 191.187 220.045 338.948 416.446 338.948 115.507 0 223.172-59.263 303.2-143.6l3.975-4.191-141.973-101.438z"  horiz-adv-x="1024" />

    
    <glyph glyph-name="fengliangjibie1" unicode="&#58985;" d="M221.368-88.725h-101.573c-39.57 0-71.764 32.194-71.764 71.764v344.466c0 39.57 32.194 71.764 71.764 71.764h101.573c39.57 0 71.764-32.194 71.764-71.764v-344.466c0-39.57-32.194-71.764-71.764-71.764zM119.795 344.067c-9.132 0-16.562-7.43-16.562-16.562v-344.466c0-9.132 7.43-16.562 16.562-16.562h101.573c9.132 0 16.562 7.43 16.562 16.562v344.466c0 9.132-7.43 16.562-16.562 16.562h-101.573zM557.003-88.725h-101.573c-39.57 0-71.764 32.194-71.764 71.764v569.693c0 39.57 32.194 71.764 71.764 71.764h101.573c39.57 0 71.764-32.194 71.764-71.764v-569.693c0-39.57-32.195-71.764-71.764-71.764zM455.429 569.294c-9.132 0-16.562-7.43-16.562-16.562v-569.693c0-9.132 7.43-16.562 16.562-16.562h101.573c9.132 0 16.562 7.43 16.562 16.562v569.693c0 9.132-7.43 16.562-16.562 16.562h-101.573zM905.885-88.725h-101.573c-39.57 0-71.764 32.194-71.764 71.764v790.506c0 39.57 32.194 71.764 71.764 71.764h101.573c39.57 0 71.764-32.194 71.764-71.764v-790.506c0-39.57-32.195-71.764-71.764-71.764zM804.312 790.106c-9.132 0-16.562-7.43-16.562-16.562v-790.506c0-9.132 7.43-16.562 16.562-16.562h101.573c9.132 0 16.562 7.43 16.562 16.562v790.506c0 9.132-7.43 16.562-16.562 16.562h-101.573z"  horiz-adv-x="1024" />

    
    <glyph glyph-name="yumaoqiukongxin" unicode="&#58884;" d="M308.796 571.738h345.212c24.756 0 44.898 20.141 44.898 44.898v79.817c0 50.41-23.38 97.446-65.829 132.447-40.776 33.618-94.641 52.132-151.675 52.132s-110.899-18.514-151.674-52.133c-42.452-35-65.83-82.036-65.83-132.447v-79.817c0-24.755 20.141-44.897 44.898-44.897zM367.809 782.712c30.081 24.8 70.421 38.458 113.592 38.458s83.513-13.658 113.592-38.458c28.406-23.419 44.048-54.052 44.048-86.257v-64.852h-315.281v64.852c0 32.205 15.643 62.839 44.048 86.257zM875.574-44.149v0l-0.137 0.405c-0.025 0.071-0.048 0.144-0.074 0.215l-176.925 517.408c-6.818 19.937-27.060 34.407-48.129 34.407h-335.526c-21.072 0-41.313-14.471-48.129-34.409l-177.137-518.027c-5.349-15.642 2.995-32.658 18.637-38.007 3.209-1.098 6.475-1.618 9.687-1.618 0.302 0 0.603 0.026 0.904 0.035 0.362-0.013 0.724-0.027 1.089-0.027 68.796 0 122.839 21.446 163.463 65.179 5.343-9.408 11.19-18.936 17.192-27.899 29.341-43.813 54.822-64.218 80.19-64.218 4.801 0 9.531 1.154 13.791 3.367 32.177 16.704 58.504 43.866 78.927 81.282 29.171-40.296 67.562-74.363 96.111-82.668 5.301-1.541 10.101-2.168 14.404-2.168 8.988 0 15.796 2.733 20.431 5.556 0.987 0.602 1.937 1.26 2.849 1.971 31.253 24.401 50.702 66.929 59.261 129.678 12.449-17.644 26.102-33.638 40.782-47.688 42.644-40.814 91.062-62.388 140.019-62.388 16.53 0 29.932 13.401 29.932 29.932-0.001 3.389-0.572 6.645-1.612 9.684zM160.897-20.423l160.319 468.846h6.492c-1.682-178.695-18.75-297.472-53.341-372.321-26.090-56.455-61.15-86.835-113.47-96.525zM378.274-47.315c-6.483 5.597-17.504 17.556-31.942 40.089-10.649 16.618-19.325 33.1-24.43 44.363 2.34 4.492 4.611 9.105 6.804 13.852 38.257 82.785 57.088 209.553 58.864 397.434h64.997c5.478-40.485 14.982-125.042 13.354-214.667-1.303-71.695-9.374-132.135-23.988-179.639-14.855-48.286-36.233-82.326-63.659-101.431zM608.865 48.916c-4.562-45.137-14.814-78.115-29.884-96.548-6.866 4.201-17.482 12.151-30.129 24.873-19.475 19.591-36.284 42.736-47.33 65.174l-0.63-0.31c15.191 51.854 23.516 115.442 24.881 190.563 1.611 88.629-6.944 170.977-12.779 215.755h53.956c8.933-39.813 27.031-126.692 37.19-218.57 7.977-72.14 9.567-133.015 4.724-180.938zM671.232 147.745c-0.216 0.612-0.457 1.211-0.709 1.801-1.185 27.224-3.5 56.42-6.944 87.466-9.573 86.269-25.484 166.5-35.279 211.41h15.576l158.26-462.822c-53.211 22.232-102.606 81.897-130.904 162.144z"  horiz-adv-x="1024" />

    
    <glyph glyph-name="mima" unicode="&#58931;" d="M522.723 345.592c-44.505 0-80.573-36.067-80.573-80.573 0-32.067 18.894-59.534 46.042-72.49v-88.621c0-19.052 15.478-34.532 34.531-34.532s34.532 15.479 34.532 34.532v88.623c27.148 12.958 46.042 40.423 46.042 72.489 0 44.505-36.069 80.572-80.574 80.572zM856.492 506.705h-690.522c-38.142 0-69.063-30.886-69.063-69.030v-460.347c0-38.142 30.922-69.063 69.063-69.063h690.522c38.106 0 69.027 30.922 69.027 69.063v460.347c0.001 38.142-30.921 69.030-69.027 69.030zM856.492 23.372c0-38.142-7.901-46.042-46.042-46.042h-598.475c-38.141 0-46.004 7.901-46.004 46.042v368.263c0 38.142 7.865 46.042 46.004 46.042h598.475c38.142 0 46.042-7.901 46.042-46.042v-368.263zM184.946 541.45c19.171 0 34.761 15.279 35.287 34.324l0.074-0.004c31.207 131.906 149.457 230.173 290.909 230.173 110.567 0 206.809-60.172 258.538-149.404 5.383-12.185 17.564-20.691 31.741-20.691 19.159 0 34.691 15.532 34.691 34.691 0 7.476-2.372 14.393-6.394 20.056-63.639 110.102-182.247 184.411-318.576 184.411-178.141 0-326.493-122.247-360.65-290.206-0.161-0.692-0.302-1.391-0.423-2.098-0.165-0.84-0.346-1.674-0.507-2.516l0.167-0.009c-0.109-1.123-0.167-2.261-0.167-3.411-0.001-19.505 15.809-35.314 35.312-35.314z"  horiz-adv-x="1024" />

    
    <glyph glyph-name="fankui" unicode="&#58898;" d="M534.015-115.2c-60.53 0-119.262 12.181-174.575 36.218-53.415 23.214-101.365 56.411-142.55 98.694-41.16 42.283-73.509 91.531-96.098 146.394-23.388 56.81-35.244 117.115-35.244 179.292 0 74.408 17.747 148.341 51.344 213.787 32.449 63.2 79.599 118.688 136.409 160.497 15.75 11.582 37.665 7.862 48.948-8.312 11.282-16.174 7.663-38.689-8.088-50.271-47.999-35.294-87.837-82.146-115.193-135.511-28.705-55.911-43.257-116.541-43.257-180.191 0-103.786 39.338-201.357 110.8-274.741 71.463-73.384 166.463-113.795 267.503-113.795 101.066 0 196.066 40.411 267.553 113.821 71.463 73.384 110.825 170.956 110.825 274.741 0 63.625-14.552 124.254-43.282 180.191-27.382 53.341-67.244 100.192-115.243 135.511-15.75 11.582-19.369 34.096-8.088 50.271 11.282 16.174 33.198 19.894 48.948 8.312 56.81-41.784 104.011-97.272 136.435-160.472 33.622-65.447 51.394-139.38 51.394-213.787 0-62.152-11.856-122.481-35.27-179.292-22.59-54.863-54.938-104.111-96.123-146.394-41.185-42.283-89.159-75.506-142.575-98.694-55.287-24.087-114.045-36.268-174.575-36.268v0zM544.623 384.587c-19.395 0-35.095 16.125-35.095 36.018v426.577c0 19.894 15.7 36.018 35.095 36.018 19.369 0 35.070-16.125 35.070-36.018v-426.577c0-19.894-15.7-36.018-35.070-36.018v0zM544.623 384.587z"  horiz-adv-x="1024" />

    
    <glyph glyph-name="shape3" unicode="&#58919;" d="M840.8 334.688l-301.952-448.576c-5.952-8.8-15.904-14.112-26.528-14.112h-0.032c-10.624 0-20.576 5.28-26.528 14.112l-301.824 447.456c-36.768 58.464-55.936 124.704-55.936 192.384 0 204.032 172.256 370.048 384 370.048 211.744 0 384-166.016 384-370.048 0-67.552-19.104-133.696-55.2-191.264zM512 832c-176.448 0-320-137.312-320-306.048 0-55.616 15.776-110.048 45.568-157.472l274.688-407.2 274.88 408.32c29.152 46.464 44.864 100.832 44.864 156.352 0 168.736-143.552 306.048-320 306.048zM512 351.328c-100.32 0-181.952 78.944-181.952 176 0 97.024 81.632 176 181.952 176 100.32 0 181.92-78.976 181.92-176 0-97.056-81.6-176-181.92-176zM512 639.328c-65.024 0-117.952-50.272-117.952-112 0-61.76 52.928-112 117.952-112 65.024 0 117.92 50.24 117.92 112 0 61.728-52.896 112-117.92 112z"  horiz-adv-x="1024" />

    
    <glyph glyph-name="geren" unicode="&#58905;" d="M510.912 895.477c81.585 0 155.476-33.088 208.968-86.577 53.488-53.489 86.573-127.382 86.573-208.967 0-81.586-33.085-155.503-86.573-208.968-13.405-13.401-28.074-25.509-43.833-36.137 62.432-23.615 118.485-60.19 164.88-106.45 84.591-84.403 136.927-200.905 136.927-329.462 0-22.207-18.022-40.228-40.253-40.228-22.201 0-40.223 18.021-40.223 40.228 0 106.514-43.209 202.89-113.058 272.552-69.826 69.64-166.316 112.778-272.924 112.916h-0.968c-106.656-0.136-203.146-43.276-272.949-112.916-69.851-69.664-113.057-166.037-113.057-272.552 0-22.207-18.023-40.228-40.25-40.228-22.205 0-40.227 18.021-40.227 40.228 0 128.557 52.335 245.057 136.948 329.462 46.35 46.259 102.404 82.833 164.837 106.45-15.737 10.628-30.409 22.736-43.81 36.137-53.467 53.466-86.553 127.383-86.553 208.968 0 81.586 33.085 155.478 86.553 208.967 53.489 53.489 127.384 86.577 208.992 86.577v0zM662.969 751.991c-38.91 38.91-92.677 63.009-152.056 63.009-59.381 0-113.172-24.099-152.081-63.009s-63.010-92.677-63.010-152.057c0-59.381 24.101-113.149 63.010-152.082 38.792-38.794 92.4-62.846 151.596-62.985h0.945c59.196 0.138 112.801 24.193 151.596 62.985 38.91 38.932 63.008 92.702 63.008 152.082 0.001 59.379-24.097 113.149-63.007 152.057z"  horiz-adv-x="1024" />

    
    <glyph glyph-name="weibiaoti1" unicode="&#58895;" d="M867.733 747.968c-95.104 95.424-221.44 148.033-355.969 148.033-134.463 0-260.8-52.609-355.841-148.099-95.099-95.552-147.39-222.529-147.39-357.633 0-135.168 52.288-262.079 147.329-357.631 94.976-95.487 221.44-148.033 355.841-148.034 134.527 0 260.993 52.607 356.033 148.033 196.16 197.184 196.16 518.015 0 715.328v0 0zM821.333 79.296c-82.688-83.071-192.704-128.894-309.634-128.894-116.865 0-226.816 45.76-309.44 128.768-82.624 83.072-128.129 193.537-128.129 311.104 0 117.506 45.504 228.033 128.192 311.039 82.624 83.072 192.512 128.768 309.44 128.768s226.88-45.697 309.568-128.768c170.623-171.52 170.623-450.56 0-622.016v0 0zM729.302 266.303l-173.954 101.119v275.712c0 23.233-18.817 42.113-41.984 42.113-23.104 0-41.92-18.88-41.92-42.111v-294.977c0-15.616 19.329-28.737 31.873-36.032 3.52-5.25 13.056-9.984 18.88-13.376l172.992-105.345c20.032-11.647 41.728-4.669 53.375 15.423 11.584 20.097 0.832 45.823-19.264 57.473v0 0zM729.302 266.303z"  horiz-adv-x="1024" />

    
    <glyph glyph-name="baozhang" unicode="&#58940;" d="M889.549 740.433c-11.32 10.5-26.222 16.299-41.629 16.299-1.406 0-2.797-0.060-4.208-0.148-0.858-0.060-10.66-0.644-26.002-0.644-25.418 0-75.032 1.706-122.025 13.183-60.698 14.797-130.75 83.462-151.136 97.004-10.258 6.811-22.086 10.215-33.92 10.215-11.794 0-24.218-2.577-33.874-10.175-17.258-13.58-75.808-79.552-147.553-97.040-46.975-11.474-97.538-13.188-122.927-13.188-15.351 0-25.142 0.589-26.102 0.65-1.338 0.082-2.675 0.148-4.025 0.148-15.429 0-30.391-5.827-41.746-16.358-12.335-11.443-19.361-27.45-19.361-44.222v-151.489c0-560.053 369.131-632.184 384.808-634.991 3.58-0.634 7.181-0.942 10.787-0.942 3.606 0 7.241 0.307 10.786 0.942 15.677 2.808 387.523 74.938 387.523 634.991v151.489c-0.006 16.797-7.051 32.826-19.406 44.28v0 0zM847.92 544.653c0-515.82-337.291-575.346-337.291-575.346s-334.562 59.52-334.562 575.346v151.489c0 0 11.525-0.805 30.209-0.805 32.008 0 85.845 2.336 137.463 14.946 84.504 20.577 166.898 105.465 166.898 105.465s86.061-84.887 170.475-105.465c51.668-12.605 104.585-14.946 136.605-14.946 18.638 0 30.207 0.805 30.207 0.805l-0.003-151.489zM700.37 576.046zM741.499 497.814c14.254 14.254 14.254 37.578 0 51.832v0c-14.254 14.254-37.578 14.254-51.834 0l-236.481-236.481-118.854 118.854c-14.254 14.254-37.578 14.254-51.834 0-14.254-14.254-14.254-37.578 0-51.834l144.771-144.771c14.254-14.254 37.578-14.254 51.834 0l262.398 262.398z"  horiz-adv-x="1024" />

    
    <glyph glyph-name="iosfootball" unicode="&#59231;" d="M512 876.247c-271.832 0-492.247-220.413-492.247-492.247s220.415-492.247 492.247-492.247c271.852 0 492.247 220.417 492.247 492.247 0 271.83-220.399 492.247-492.247 492.247zM609.388-56.607c-31.982-6.288-71.772-9.908-104.13-10.531-31.234 0.462-61.707 4.106-91.114 10.633-5.074 1.299-10.372 2.694-16.104 4.206l-57.785 154.857 46.491 92.117h250.512l1.348-2.546 45.77-91.946-55.894-152.128c-6.312-1.69-12.68-3.241-19.096-4.661zM354.808 806.954l135.894-92.996v-137.61l-168.019-142.153-126.778 57.767-52.851 151.506c52.086 73.847 125.755 131.421 211.754 163.488zM880.155 644.165l-53.087-152.604-127.777-57.717-168.358 142.504v137.61l136.304 93.278c86.053-31.909 160.702-89.343 212.916-163.071zM62.691 342.788l127.217 110.088 118.561-54.085 46.664-182.906-48.356-91.182-165.33 2.165c-43.421 62.383-71.505 136.187-78.758 215.92zM717.228 124.706l-48.359 91.182 46.744 183.21 118.322 53.913 127.374-110.224c-7.254-79.733-35.338-153.536-78.753-215.918l-165.33-2.165z"  horiz-adv-x="1024" />

    
    <glyph glyph-name="icon1" unicode="&#58885;" d="M987.507 36.221c-43.68 111.208-117.474 137.208-176.947 147.478-49.582 8.614-98.128 26.465-120.017 38.108 0 51.2-0.717 67.601-0.899 78.88 55.994 65.874 91.315 155.873 91.315 236.578 0 183.152-90.644 331.616-271.352 331.616-180.561 0-271.341-148.464-271.341-331.616 0-80.546 34.847-169.866 90.184-235.507 0.11-28.848 0.158-73.307-0.426-80.024-22.023-11.546-70.375-29.445-119.908-38.035-59.461-10.232-133.292-36.258-176.898-147.43-7.409-18.908-4.746-39.397 7.252-56.249 44.774-62.722 280.782-75.898 470.87-75.898s426.119 13.176 470.883 75.886c12.031 16.839 14.623 37.329 7.286 56.213zM298.345 537.263c0 149.839 70.668 271.342 211.259 271.342 140.702 0 211.272-121.503 211.272-271.342 0-122.522-94.575-271.341-211.272-271.341-116.659 0.001-211.259 148.209-211.259 271.341zM509.337-35.64c-367.849 0-418.295 48.584-419.937 50.531 33.837 86.266 84.659 101.767 129.666 109.529 53.121 9.209 108.751 28.69 138.609 44.349l29.591 15.55c0 0 0.877 37.621 1.435 61.907 36.416-25.307 77.445-40.613 120.905-40.613 43.195 0 83.99 15.161 120.236 40.25 0.425-24.311 1.082-61.055 1.083-61.055l29.638-15.781c29.506-15.695 85.291-35.296 139.071-44.63 44.995-7.762 95.817-23.275 129.982-109.419-1.971-2.068-52.429-50.615-420.278-50.615z"  horiz-adv-x="1024" />

    
    <glyph glyph-name="wenzhang" unicode="&#59069;" d="M706.28 865.219h-537.209c-39.462 0-71.473-30.498-71.473-68.096v-833.111c0-37.484 32.011-68.096 71.473-68.096h680.273c39.462 0 71.473 30.498 71.473 68.096v661.531l-214.535 239.678zM826.178 626.823h-143.761v160.639l143.761-160.639zM835.606-30.636h-651.404c-6.636 0-11.757 4.423-11.757 8.381v806.571c0 3.957 5.005 8.381 11.757 8.381h442.689v-175.771c0-32.361 26.307-58.553 58.553-58.553h161.802v-580.63c0-3.957-5.005-8.381-11.641-8.381v0zM835.373-30.636zM564.383 570.249c0-20.603-16.647-37.25-37.25-37.25h-201.382c-20.603 0-37.25 16.647-37.25 37.25v0c0 20.603 16.647 37.25 37.25 37.25h201.382c20.487 0 37.25-16.647 37.25-37.25v0zM739.571 385.164c0-20.603-16.647-37.25-37.25-37.25h-373.661c-20.603 0-37.25 16.647-37.25 37.25v0c0 20.603 16.647 37.25 37.25 37.25h373.661c20.487 0 37.25-16.647 37.25-37.25v0zM739.571 200.080c0-20.603-16.647-37.25-37.25-37.25h-373.661c-20.603 0-37.25 16.647-37.25 37.25v0c0 20.603 16.647 37.25 37.25 37.25h373.661c20.487 0 37.25-16.762 37.25-37.25v0z"  horiz-adv-x="1024" />

    
    <glyph glyph-name="jubao" unicode="&#58955;" d="M495.89174977591097 721.8073803654386L495.89174977591097 721.8073803654386 101.52272846090852 45.65175701476687C89.6490250381716 25.29399612092925 87.02641049991445 29.895443194790687 110.10673304974404 29.895443194790687L890.2862953899985 29.895443194790687C913.5926074679813 29.895443194790687 911.4905930228324 26.23956815842689 899.5382263793776 47.18679362905709L514.8146336359272 721.4374783190929C502.8862907734985 742.3425985447653 507.8540899955232 742.3171151890194 495.89174977591097 721.8073803654386L495.89174977591097 721.8073803654386ZM434.7159715304317 757.4882668025684C474.09789018753156 825.0095577626578 537.3118101621495 824.9113280520232 576.3264980491543 756.5357974722506L961.0500974320653 82.2851127822147C999.8775126978962 14.237789543800545 968.0821392087951-40.92546816625145 890.2862953899985-40.92546816625145L110.10673304974404-40.92546816625145C32.197550321504764-40.92546816625145 1.0223245690434055 13.909584415595305 40.3469502154291 81.33264234531975L434.7159715304317 757.4882668025684 434.7159715304317 757.4882668025684ZM471.4486226419144 469.3696157714851C468.437495649698 462.02196502958157 468.36906162436526 453.3680646275397 470.079928856337 444.11546637238644 472.40670895576466 431.48839111954874 473.5700984521901 419.02459679758425 475.00722736967714 406.34309567436566 477.53931065168 383.4293084976017 480.00296101492677 360.4610954504567 482.5350454035064 337.5473082736927 484.2459126354782 321.7634639310015 485.2039978427516 305.9796206948869 487.80451736324085 290.25020332915346 489.92599317351653 277.4054212750617 496.01668118328206 247.63382614901354 519.1476119137394 249.21221069394005 529.2075132295718 249.91976250096707 535.0244640314291 259.9343384335282 538.0355910236456 266.57443847498143 544.9474961900189 282.2494277571809 544.536887611715 298.95853181472955 545.7002771081405 315.3410729039555 546.0424516611116 320.4027884004822 546.4530591328387 325.464502790432 546.7952336858096 330.5262193935355 548.5745360496912 355.7259418156764 550.4907075708147 380.9256642378174 552.4068790919385 406.0709607895771 553.6387037202736 422.6712097866339 555.3495709522452 439.16260482977526 556.7866998697324 455.7084268498743 557.4710467625212 464.19904632104306 555.9654827131245 472.74409276916947 548.0954923394776 478.8399219344692 540.4992402803156 484.718043191938 530.1655995434219 488.5279360052839 519.7635247811953 489.77975868846465 500.32806793574304 492.12012201737593 478.086789493803 485.371168022007 471.4486226419144 469.3696157714851L471.4486226419144 469.3696157714851ZM468.9519951852384 160.91412921271808C468.9519951852384 135.49047770831396 489.9349675108781 114.88053682804082 515.8187745671204 114.88053682804082 541.7025827299392 114.88053682804082 562.6855539490022 135.49047770831396 562.6855539490022 160.91412921271808 562.6855539490022 186.3377807171222 541.7025827299392 206.94772159739534 515.8187745671204 206.94772159739534 489.9349675108781 206.94772159739534 468.9519951852384 186.3377807171222 468.9519951852384 160.91412921271808L468.9519951852384 160.91412921271808Z"  horiz-adv-x="1024" />

    
    <glyph glyph-name="zankongxingai" unicode="&#58972;" d="M222.11-44.723c-1.555 0-3.186 0.135-5.127 0.429l-0.514 0.079-154.423-0.018c-2.022-0.326-3.813-0.485-5.478-0.485-18.993 0-34.445 15.451-34.445 34.443l0.375 496.847c0 18.997 15.455 34.449 34.452 34.449 1.272 0 2.638-0.093 4.174-0.286l0.438-0.053 144.715 0.335v1.324c128.040 12.344 226.461 117.273 230.079 246.644l0.009 0.404-0.037 0.403c-0.355 4.008-0.519 7.273-0.519 10.278 0 62.562 50.897 113.458 113.458 113.458 26.164 0 50.734-8.665 71.051-25.058 19.728-15.918 33.719-38.219 39.397-62.8l1.416-6.131 0.511 0.065c5.959-28.765 8.977-57.975 8.977-86.933 0-48.176-8.019-95.532-23.832-140.751l-3.227-9.223 240.776-0.259c1.571 0 3.223-0.139 5.203-0.445l0.387-0.056 0.392-0.013c38.686-1.519 73.894-21.952 94.184-54.65 12.97-20.897 18.857-44.938 17.034-69.528l-0.041-0.536 0.043-0.536c0.322-3.987-0.014-7.899-1.003-11.632l-0.057-0.242-89.402-394.603c-0.998-3.709-2.657-7.265-4.929-10.573l-0.271-0.394-0.216-0.428c-9.381-18.731-23.567-34.501-41.026-45.606-16.534-10.507-35.431-16.57-55.019-17.699v0.051l-582.4 0.169c-1.951-0.291-3.577-0.426-5.116-0.426zM489.221 674.455c-16.764-51.256-46.539-97.951-86.106-135.029-39.709-37.214-88.43-63.928-140.895-77.256l-5.226-1.328-0.408-436.185 546.293-0.222c1.332 0 2.781-0.108 4.431-0.331l0.922-0.126 0.924 0.124c6.591 0.877 12.778 3.135 18.395 6.707 5.694 3.618 10.449 8.385 14.016 14.012l1.891-1.061 2.163 9.018 87.545 386.409-0.279 0.083c1.771 11.061-0.456 22.434-6.433 32.067-7.752 12.501-20.619 20.461-35.049 21.914v0.181l-6.942 0.124-292.093 0.304c-19 0-34.45 15.454-34.45 34.45 0 5.285 1.209 10.408 3.596 15.228l2.448 4.948-0.329 0.27c14.767 28.587 25.598 59.099 32.251 90.85l0.268-0.006 1.338 5.435c0.233 0.946 5.707 23.67 5.634 66.884-0.055 34.242-6.121 65.009-6.383 66.302 0 0-0.085 0.435-0.085 0.44 0 25.165-20.475 45.64-45.64 45.64-23.756 0-43.333-18.237-45.457-41.441l-0.734-0.008 0.138-6.989c0.005-0.317 0.56-32.017-5.67-64.367-1.829-9.507-4.329-19.423-7.447-29.564l-0.163 0.080-2.467-7.545zM91.448 451.866l-0.403-427.144 96.653-0.042 0.323 427.398-96.572-0.214z"  horiz-adv-x="1024" />

    
    <glyph glyph-name="xiangmuguanli" unicode="&#58899;" d="M40.704 580.579l-0.219-0.333 456.083-263.324c4.57-2.646 9.765-4.044 15.021-4.044 5.42 0 10.744 1.465 15.344 4.206l452.587 261.297c14.324 8.295 19.229 26.702 10.932 41.031-2.698 4.657-6.597 8.505-11.221 11.096l-450.859 261.445c-4.569 2.648-9.765 4.047-15.022 4.047-5.917 0-11.646-1.718-16.578-4.97l-452.224-261.091c-14.33-8.23-19.291-26.588-11.059-40.924 1.867-3.249 4.32-6.111 7.215-8.436zM513.242 831.312l391.271-226.896-392.899-226.841-392.13 226.405 393.758 227.332zM979.231 410.070l-84.858 49.209-59.987-34.632 70.128-40.671-392.9-226.839-392.13 226.403 70.28 40.576-59.954 34.615-85.263-49.23c-14.33-8.233-19.291-26.591-11.058-40.923 1.899-3.307 4.406-6.211 7.366-8.558l-0.19-0.321 455.904-263.219c4.57-2.645 9.764-4.042 15.020-4.042 5.42 0.001 10.743 1.464 15.344 4.204l452.587 261.295c14.324 8.3 19.229 26.707 10.932 41.032-2.699 4.661-6.598 8.51-11.221 11.101zM979.231 189.631l-84.509 49.008-59.985-34.632 69.778-40.467-392.9-226.842-392.131 226.402 69.93 40.377-59.951 34.613-84.915-49.030c-14.331-8.233-19.291-26.591-11.058-40.922 1.877-3.269 4.351-6.146 7.271-8.481l-0.208-0.328 456.015-263.283c4.571-2.647 9.766-4.047 15.023-4.046 5.418 0 10.741 1.463 15.342 4.202l452.588 261.298c14.323 8.301 19.227 26.708 10.931 41.033-2.696 4.655-6.595 8.504-11.221 11.098z"  horiz-adv-x="1024" />

    
    <glyph glyph-name="yue" unicode="&#58974;" d="M512 892.458c-280.377 0-508.458-228.079-508.458-508.458s228.079-508.458 508.458-508.458 508.458 228.079 508.458 508.458-228.079 508.458-508.458 508.458zM512-51.822c-240.319 0-435.822 195.502-435.822 435.822s195.502 435.822 435.822 435.822 435.822-195.502 435.822-435.822-195.502-435.822-435.822-435.822zM658.509 384c20.084 0 36.319 16.272 36.319 36.319s-16.235 36.319-36.319 36.319h-110.19v17.178l134.597 140.589c13.838 14.527 13.621 37.517-0.909 51.354-14.455 13.801-37.263 13.292-51.172-1.271l-115.311-121.194-122.103 121.848c-14.237 14.2-37.191 14.127-51.354-0.074s-14.854-37.191-0.654-51.354l134.269-134.634v-22.444h-107.575c-20.048 0-36.319-16.272-36.319-36.319s16.272-36.319 36.319-36.319h107.575v-72.637h-107.575c-20.048 0-36.319-16.235-36.319-36.319s16.272-36.319 36.319-36.319h107.575v-107.974c0-20.084 16.272-36.319 36.319-36.319s36.319 16.235 36.319 36.319v107.974h110.19c20.084 0 36.319 16.235 36.319 36.319s-16.235 36.319-36.319 36.319h-110.19v72.637h110.19z"  horiz-adv-x="1024" />

    
    <glyph glyph-name="lianxi" unicode="&#59103;" d="M938.542 177.073c-24.444 23.574-54.828 46.205-76.012 61.043-28.295 19.811-58.013 38.188-83.692 51.751-41.829 22.073-60.057 24.9-71.261 24.9-14.882 0-36.567-5.72-55.377-32.956-9.467-13.719-16.453-29.854-23.209-45.461l-0.065-0.136c-3.352-7.766-9.156-21.201-13.613-28.583-8.181 2.782-28.068 11.232-64.169 35.817-35.249 24.011-73.531 55.117-102.434 83.23-28.141 28.925-59.286 67.239-83.329 102.522-24.575 36.111-33.040 56.005-35.829 64.184 7.309 4.411 20.604 10.167 28.297 13.498l0.184 0.080c15.764 6.836 32.065 13.902 45.696 23.308 27.243 18.783 32.963 40.488 32.963 55.386 0 11.202-2.833 29.423-24.907 71.246-13.525 25.647-31.906 55.373-51.748 83.693-14.766 21.113-37.341 51.439-61.034 76.021-27.642 28.662-49.078 41.445-69.509 41.445-48.23 0-103.32-68.432-119.060-89.411-19.972-26.648-66.421-95.702-66.421-161.265 0-61.013 40.193-139.062 73.915-193.797 44.857-72.778 106.861-151.14 174.595-220.648l22.147-22.151c69.642-67.863 148.073-129.933 220.842-174.777 54.725-33.728 132.766-73.929 193.799-73.929 65.592 0 134.631 46.457 161.271 66.43 20.972 15.725 89.401 70.788 89.401 119.052 0.001 20.429-12.781 41.867-41.444 69.509zM897.047 84.188c-12.49-14.405-29.901-30.099-49.024-44.193-43.516-32.063-87.894-51.202-118.71-51.202-34.391 0-93.749 23.927-158.784 64.007-68.577 42.251-142.661 100.886-208.659 165.14l-21.682 21.672c-64.392 66.113-123.151 140.323-165.458 208.972-40.079 65.052-64.006 124.416-64.006 158.8 0 30.831 19.143 75.204 51.205 118.702 14.168 19.215 29.861 36.625 44.195 49.032 11.111 9.632 18.526 13.717 21.998 15.305 9.654-6.173 38.243-31.483 80.558-92.819 17.213-24.963 33.004-50.705 44.457-72.488 11.114-21.157 14.927-32.35 16.222-37.232-1.299-1.151-3.573-2.896-7.409-5.177-8.364-4.988-19.973-9.997-30.317-14.455l-0.159-0.070c-13.909-6.033-28.287-12.272-39.944-20.008-25.494-16.87-30.495-36.589-30.196-50.131 0.189-9.739 0.693-35.604 48.911-106.391 26.234-38.505 60.236-80.299 90.952-111.795l0.203-0.202c31.752-30.967 73.688-65.11 112.178-91.335 70.681-48.139 96.591-48.693 106.352-48.902l0.264-0.004c19.943 0 36.796 10.255 50.088 30.472 7.648 11.61 13.745 25.676 19.641 39.279l0.186 0.427c4.723 10.921 9.602 22.213 14.528 30.451 2.265 3.791 4.028 6.077 5.198 7.401 4.86-1.297 16.056-5.121 37.198-16.231 21.79-11.449 47.534-27.237 72.497-44.457 61.417-42.374 86.7-70.958 92.833-80.567-1.595-3.494-5.671-10.87-15.314-21.997z"  horiz-adv-x="1024" />

    
    <glyph glyph-name="ad80-copy" unicode="&#58880;" d="M968.677 633.846c-19.508 0-35.446 15.877-35.446 35.446 0 12-9.662 21.785-21.6 21.785h-799.323c-11.815 0-21.6-9.723-21.6-21.785 0-19.569-15.877-35.446-35.446-35.446-19.692 0-35.569 15.877-35.569 35.446 0 51.077 41.6 92.8 92.615 92.8h799.323c51.077 0 92.677-41.723 92.677-92.8 0-19.569-15.938-35.446-35.446-35.446h-0.185zM911.631 5.846h-799.323c-51.015 0-92.615 41.477-92.615 92.677 0 19.569 15.877 35.446 35.569 35.446 19.569 0 35.446-15.877 35.446-35.446 0-11.877 9.723-21.662 21.6-21.662h799.323c11.877 0 21.6 9.723 21.6 21.662 0 19.569 15.938 35.446 35.446 35.446 19.692 0 35.631-15.877 35.631-35.446 0-51.2-41.6-92.677-92.677-92.677v0zM143.815 232.554v38.092h55.938v222.954l-62.215-21.046-3.077 39.692 86.831 29.785h20.554v-271.385h45.169v-38.092h-143.2zM398.154 403.692c-9.231 11.877-13.969 28.246-13.969 46.892 0 52.431 40.615 91.446 99.754 91.446 58.462 0 100.123-35.569 100.123-94.092 0-43.631-21.046-75.631-69.292-117.169-16.923-14.277-40.677-36.923-61.6-60.123h135.631v-38.092h-206.646v20.677c31.508 34.954 73.969 77.538 107.446 108.431 36.431 32.923 51.385 57.477 51.385 85.846 0 33.785-22.646 55.385-57.662 55.385-34.831 0-55.938-21.969-55.938-49.292 0-11.877 3.631-23.2 11.323-34.831l-40.554-15.077zM720.369 309.723c16.554-28.738 37.415-44.738 65.292-44.738 35.877 0 60.615 23.2 60.615 57.108 0 33.292-19.631 50.954-51.446 50.954h-22.031v37.846h21.538c26.831 0 43.754 14.4 43.754 45.292 0 28.738-20.554 46.646-50.954 46.646-26.092 0-46.708-15.385-62.646-47.692l-34.4 21.046c20.062 42.092 53.415 65.846 96.985 65.846 56.615 0 94.031-32.062 94.031-82.831 0-31.385-14.831-52.862-40.985-67.323 30.708-11.877 49.354-34.831 49.354-70.462 0-58.523-42.708-95.569-104.862-95.569-46.277 0-78.154 22.092-99.138 58.154l34.892 25.723zM720.369 309.723z"  horiz-adv-x="1024" />

    
    <glyph glyph-name="edit" unicode="&#58909;" d="M879.724070331597 450.14409440482814c-16.32128498457493 0-28.344472428732793-13.244275594666133-28.344472428732793-29.54237475345169l0-390.0878631129994c0-38.84406089111416-30.063490483656178-71.93377312496843-68.88767780980803-71.93377312496843l-612.5753553498881 0c-38.81645907719282 0-83.95696164803861 33.08971223385426-83.95696164803861 71.93377312496843L85.95960309512952 644.9186361199617c0 38.95225853436506 45.14050149193346 80.41072789494095 83.95696164803861 80.41072789494095l329.8725580673984 0c16.31797272374788 0 29.47944395556231 12.077287344695634 29.47944395556231 28.432797585933688 0 16.343366004147075-13.161471231814433 28.36655344830494-29.47944395556231 28.36655344830494L169.91656474316818 782.1287150491412c-77.53024130548394 0-140.64811396011402-59.34972389959374-140.64811396011402-137.21007892917956l0-614.4058833088894c0-77.80846366257019 63.11897638193498-128.73864387464394 140.64811396011402-128.73864387464394l612.5753553498881 0c77.58986092145858 0 125.58214346162279 50.93018021207372 125.58214346162279 128.73864387464394L908.074063554679 420.6006159240716C908.074063554679 436.89981881016206 896.0166497749458 450.14409440482814 879.724070331597 450.14409440482814L879.724070331597 450.14409440482814zM967.5662103541868 742.5637044454561l-99.95365262394851 100.08393128677154c-32.832467169035226 32.97820232977631-90.60559591361961 32.97820232977631-123.4413753434819 0l-81.59979824339591-96.09717979062361L227.68417377231566 329.4374704900622l-28.683418129098616-249.95755154335046 13.810657091319818-12.06624575599724 243.05829565569218 33.14049879465265 415.8477363408016 436.2617619312532 95.84876670206852 78.42342426541246C1001.5811233500231 649.3503235051164 1001.5811233500231 708.4240325022339 967.5662103541868 742.5637044454561L967.5662103541868 742.5637044454561zM268.3278485476827 137.06977501306483l7.133316205600232 117.00582302466331 107.80902334833699-107.96579901886415L268.3278485476827 137.06977501306483 268.3278485476827 137.06977501306483zM435.1708348421247 176.5917273049106L303.27569055445974 308.6580011126282 692.0795336401492 696.1789289772248l129.45628132638788-129.71573492472905L435.1708348421247 176.5917273049106 435.1708348421247 176.5917273049106zM926.4168774254456 659.986815151975l-57.937633742982875-58.04583138623377L727.3861938333417 743.2835493518098l57.90672074714681 58.08336998263628c5.484958276437568 5.488270537264623 12.777259764999412 8.476954769972524 20.58736364402637 8.476954769972524 7.815624673376156 0 15.125590114465858-2.9886842327079024 20.590675904853427-8.476954769972524l99.88520103170995-100.04197778114943C937.747821777171 689.9200269728082 937.747821777171 671.401667593857 926.4168774254456 659.986815151975L926.4168774254456 659.986815151975zM926.4168774254456 659.986815151975"  horiz-adv-x="1024" />

    
    <glyph glyph-name="home" unicode="&#59020;" d="M956.718 411.307l-410.552 417.641c-18.084 18.379-49.723 18.379-67.676 0l-410.256-416.591c-14.572-13.883-18.872-35.184-10.896-54.482 8.008-18.379 24.878-29.735 44.045-29.735h44.078c12.57 0 22.81-10.404 22.81-23.204v-363.422c0-27.044 21.53-49.001 48.016-49.001h166.958c26.486 0 48.016 21.957 48.016 49.001v263.253c0 12.767 10.24 23.171 22.777 23.171h117.826c12.537 0 22.777-10.404 22.777-23.171v-263.253c0-27.044 21.53-49.001 48.049-49.001h166.958c26.88 0 48.771 21.957 48.771 49.001v362.667c0 7.253 1.772 11.914 6.4 16.607 4.267 4.365 9.781 6.531 16.345 6.531h41.223c19.167 0 36.037 11.422 44.176 29.998 7.844 18.675 3.971 39.811-9.846 53.99z"  horiz-adv-x="1024" />

    
    <glyph glyph-name="fangxiangshang" unicode="&#58951;" d="M512 648.234c12.319 0 24.136-4.893 32.849-13.606l435.552-435.553c18.142-18.142 18.142-47.556 0-65.696-18.142-18.142-47.555-18.142-65.696 0l-402.703 402.705-402.703-402.705c-18.142-18.142-47.555-18.142-65.696 0s-18.142 47.555 0 65.696l435.552 435.553c8.711 8.713 20.528 13.606 32.849 13.606z"  horiz-adv-x="1024" />

    
    <glyph glyph-name="pinglun" unicode="&#58920;" d="M838.214 814.473h-656.179c-84.73 0-153.395-75.124-153.395-160.717v-425.018c0-85.59 67.063-142.87 151.794-142.87h60.718v-182.152l212.51 182.152h394.662c84.703 0 151.791 57.277 151.791 142.87v425.018c-0.001 85.59-77.203 160.717-161.903 160.717zM939.401 228.736c0-56.747-45.747-82.152-91.074-82.152h-417.134l-129.322-110.85v110.85h-121.434c-45.332 0-91.076 25.408-91.076 82.152v425.018c0 53.279 43.315 100.002 92.68 100.002h656.181c51.999 0 101.186-48.591 101.186-100.002v-425.018zM210.791 450.17c0 0 0 0 0 0 0-33.534 27.185-60.718 60.718-60.718 33.534 0 60.718 27.185 60.718 60.718 0 0 0 0 0 0 0 0 0 0 0 0 0 33.534-27.185 60.718-60.718 60.718-33.534 0-60.718-27.185-60.718-60.718s0 0 0 0zM453.659 450.17c0-33.534 27.185-60.718 60.718-60.718s60.718 27.185 60.718 60.718c0 0 0 0 0 0 0 33.534-27.185 60.718-60.718 60.718-33.534 0-60.718-27.185-60.718-60.718 0 0 0 0 0 0zM696.529 450.17c0 0 0 0 0 0 0-33.534 27.185-60.718 60.718-60.718 33.534 0 60.718 27.185 60.718 60.718 0 0 0 0 0 0 0 0 0 0 0 0 0 33.534-27.185 60.718-60.718 60.718-33.534 0-60.718-27.185-60.718-60.718s0 0 0 0z"  horiz-adv-x="1024" />

    
    <glyph glyph-name="qbzuocesvg02" unicode="&#59024;" d="M512 864C246.15384593750002 864 32 649.8461540625 32 384s214.1538459375-480 480-480 480 214.1538459375 480 480S777.8461540625 864 512 864zM512-22.153845937500023C286.769230625-22.153845937500023 105.84615406249998 158.76923062499998 105.84615406249998 384 105.84615406249998 609.230769375 286.769230625 790.1538459375 512 790.1538459375s406.1538459375-180.9230765625 406.1538459375-406.1538459375C918.1538459375 158.76923062499998 737.230769375-22.153845937500023 512-22.153845937500023zM504.6153846875 169.84615406249998m-36.9230765625 0a0.9375 0.9375 0 1 1 73.8461540625 0 0.9375 0.9375 0 1 1-73.8461540625 0ZM500.9230765625 243.69230812500007c-18.46153875 0-33.230769375 14.769230624999999-33.230769375 33.230769375 0 14.769230624999999 11.0769234375 59.0769234375 14.769230624999999 70.15384593750001 3.692308125 11.0769234375 11.0769234375 22.1538459375 18.46153875 29.538461249999997 7.384615312499999 11.0769234375 18.46153875 18.46153875 33.230769375 33.230769375 7.384615312499999 7.384615312499999 36.9230765625 33.230769375 40.6153846875 40.6153846875 3.692308125 3.692308125 7.384615312499999 11.0769234375 11.0769234375 14.769230624999999 3.692308125 7.384615312499999 14.769230624999999 44.307691875-18.46153875 77.53846125-22.1538459375 18.46153875-44.307691875 22.1538459375-55.3846153125 22.1538459375-44.307691875 0-73.8461540625-25.8461540625-81.230769375-81.230769375 0 0-11.0769234375-29.538461249999997-36.9230765625-33.230769375-18.46153875 0-33.230769375 11.0769234375-36.9230765625 29.538461249999997 0 0-7.384615312499999 25.8461540625 11.0769234375 62.769230625 14.769230624999999 29.538461249999997 36.9230765625 59.0769234375 81.230769375 73.8461540625 48 14.769230624999999 92.307691875 11.0769234375 121.8461540625 0 81.230769375-33.230769375 92.307691875-103.3846153125 92.307691875-121.8461540625 0-11.0769234375-3.692308125-44.307691875-14.769230624999999-59.0769234375-36.9230765625-51.692308125-81.230769375-73.8461540625-99.69230812500001-107.0769234375-3.692308125-7.384615312499999-11.0769234375-48-11.0769234375-51.692308125C534.1538459375 254.7692306250001 519.3846153125 243.69230812500007 500.9230765625 243.69230812500007z"  horiz-adv-x="1024" />

    
    <glyph glyph-name="jiangbei" unicode="&#59078;" d="M987.057 696.224c-0.228 19.567-15.926 35.414-35.188 35.414h-97.559c0.016 2.4 0.038 4.695 0.038 6.927 0 21.661-0.899 44.354-2.743 69.412-1.414 18.588-16.842 33.145-35.124 33.145h-610.956c-18.31 0-33.739-14.57-35.129-33.215-1.885-26.389-2.766-48.419-2.766-69.337 0-2.298 0.007-4.61 0.035-6.931h-95.484c-19.282 0-34.997-15.889-35.227-35.507-7.309-152.813 57.633-320.767 219.261-352.034 2.020-0.482 4.071-0.755 6.121-0.817 23.74-41.19 50.995-75.905 81.085-103.269 40.63-37.058 85.131-59.708 132.279-67.326l0.001-1.33c0.002-0.249 0.003-0.545 0.001-0.705l-0.002-139.266h-135.97c-19.439 0-35.257-16.086-35.257-35.852 0-18.408 13.749-33.749 31.592-35.648l0.706-0.173h345.403c19.424 0 35.229 16.063 35.229 35.809 0 19.77-15.803 35.852-35.229 35.852h-135.975l0.004 139.833-0.014 0.126c0.006 0.272 0.009 0.578 0.010 0.932v0.386c47.18 7.621 91.703 30.24 132.355 67.241 30.129 27.445 57.407 62.199 81.183 103.415 2.808-0.11 5.553 0.16 8.346 0.857 161.417 31.22 226.282 199.186 218.983 352.061zM107.972 658.736l0.034 1.19h63.359c7.148-83.163 24.095-160.241 50.511-229.786-58.166 31.358-111.708 109.33-113.897 228.601zM762.073 547.040c-14.114-59.124-34.083-112.412-59.353-158.379-25.269-45.908-54.545-82.127-86.988-107.636-33.568-26.273-68.798-39.595-104.723-39.595-35.962 0-71.198 13.321-104.722 39.582-32.514 25.527-61.794 61.74-87.034 107.662-25.328 45.93-45.291 99.207-59.326 158.347-14.549 61.268-21.928 125.72-21.928 191.567 0 9.955 0.222 20.049 0.682 30.818h544.617c0.428-10.664 0.637-20.752 0.637-30.818 0.001-65.715-7.359-130.17-21.87-191.546zM799.954 428.924c17.338 45.37 30.677 94.062 39.757 145.204 0 0 1.609 9.179 2.047 11.807 3.802 23.011 6.795 46.77 8.897 70.622l0.11 0.059 0.237 3.308h65.050c-1.844-121.867-56.709-200.446-116.101-231.008z"  horiz-adv-x="1024" />

    
    <glyph glyph-name="riqi" unicode="&#59208;" d="M703.303 612.664c23.762 0 44.404 19.793 44.404 44.226v200.986c0 24.433-20.643 44.248-44.404 44.248-23.783 0-43.045-19.815-43.045-44.248v-200.986c0-24.433 19.265-44.226 43.045-44.226v0zM617.359 790.721h-217.946v-66.806h217.946v66.806zM872.35 790.721h-81.001v-66.436h84.099c24.737 0 45.613-21.47 45.613-46.883v-154.606h-825.327v154.606c0 25.411 20.876 46.883 45.613 46.883h84.65v66.436h-80.873c-62.714 0-114.012-52.741-114.012-117.216v-679.782c0-64.456 49.409-117.195 112.123-117.195h729.114c62.69 0 114.011 52.737 114.011 117.195v679.782c0 64.478-51.322 117.216-114.011 117.216v0zM921.061-9.719c0-25.411-20.876-46.882-45.613-46.882h-734.101c-24.737 0-45.613 21.47-45.613 46.882v465.948h825.326v-465.948zM268.619 255.614c36.088 0 65.322 30.072 65.322 67.175 0 37.085-29.236 67.156-65.322 67.156-36.066 0-65.322-30.072-65.322-67.156 0-37.104 29.256-67.175 65.322-67.175v0zM507.824 255.614c36.067 0 65.322 30.072 65.322 67.175 0 37.085-29.255 67.156-65.322 67.156-36.088 0-65.322-30.072-65.322-67.156 0-37.104 29.236-67.175 65.322-67.175v0zM267.452 10.010c36.088 0 65.321 30.072 65.321 67.156 0 37.105-29.235 67.176-65.321 67.176-36.067 0-65.322-30.072-65.322-67.176 0-37.084 29.255-67.156 65.322-67.156v0zM507.824 10.010c36.067 0 65.322 30.072 65.322 67.156 0 37.105-29.255 67.176-65.322 67.176-36.088 0-65.322-30.072-65.322-67.176 0-37.084 29.236-67.156 65.322-67.156v0zM746.689 255.614c36.068 0 65.323 30.072 65.323 67.175 0 37.085-29.256 67.156-65.323 67.156-36.088 0-65.322-30.072-65.322-67.156 0.001-37.104 29.236-67.175 65.322-67.175v0zM312.258 612.664c23.761 0 44.404 19.793 44.404 44.226v200.986c0 24.433-20.642 44.248-44.404 44.248-23.782 0-43.046-19.815-43.046-44.248v-200.986c0-24.433 19.266-44.226 43.046-44.226v0z"  horiz-adv-x="1024" />

    
    <glyph glyph-name="directionbottom" unicode="&#58903;" d="M512 119.766c-12.319 0-24.136 4.893-32.849 13.606l-435.553 435.553c-18.142 18.142-18.142 47.556 0 65.696 18.142 18.142 47.555 18.142 65.696 0l402.703-402.705 402.703 402.705c18.142 18.142 47.555 18.142 65.696 0s18.142-47.555 0-65.696l-435.551-435.553c-8.712-8.713-20.529-13.606-32.849-13.606z"  horiz-adv-x="1024" />

    
    <glyph glyph-name="xinlang" unicode="&#59042;" d="M13 384c0-275.59 223.41-499 499-499s499 223.41 499 499c0 275.59-223.41 499-499 499-275.59 0-499-223.41-499-499zM475.4 99.3c-171.1 0-309.9 90.9-309.9 203.1 0 112.1 207.8 289.2 287.3 289.2 33.3 0 98.7-25.2 53-105.2-3.2-5.6 103.2 46.5 161.4 12.2 58.2-34.2 0-89.3 0-95.4 0-6.1 116.8-6.1 116.8-100.9-0.1-112.1-137.5-203-308.6-203zM718.9 514.5c-19.3 23.2-58.9 17.8-58.9 17.8-8.3-0.2-14.7 5.8-14.7 13.8v5.7c0 8 6.4 15.5 14.3 16.7 0 0 47.2 12 83.3-21 36.1-33 20.6-93.3 20.6-93.3-1.3-8.1-9.1-14.4-17.1-14.4h-13.1c-7.9 0-12.6 6.2-10.3 13.8 0.1 0.1 15.1 37.7-4.1 60.9zM855.2 435.8c-1.3-12-12.5-21.6-24.5-21.6h-9.3c-12.1 0-20.4 9.6-18.6 21.5 0 0 17.2 72.7-22.6 130.6-39.7 57.9-133 48-133 48-12.3-0.2-22 9-22 21v10.7c0 12.1 9.7 22 21.6 22.2 0 0 97.2 8.9 163.4-54.7 66.4-63.5 45-177.7 45-177.7zM447 422.9c-109.3-15.4-189.7-86.3-179.6-158.5 10.1-72.2 107-118.2 216.3-102.9 109.4 15.4 189.8 86.3 179.6 158.5-10.1 72.2-107 118.3-216.3 102.9zM463.5 181.2c-65-12.6-126.4 21.7-137.1 76.8-10.7 55 33.3 109.9 98.4 122.5 65 12.6 126.4-21.7 137.1-76.8 10.7-55-33.3-109.9-98.4-122.5zM393.7 290.9c-20-9.3-30.5-29.3-23.4-44.5s29.1-20 49.1-10.7 30.5 29.3 23.4 44.5c-7.1 15.3-29.1 20.1-49.1 10.7zM465.4 322.7c-11 0-20-9.1-20-20.3 0-11.2 8.9-20.3 20-20.3 11 0 20 9.1 20 20.3 0 11.2-9 20.3-20 20.3z"  horiz-adv-x="1024" />

    
    <glyph glyph-name="06" unicode="&#58892;" d="M56.32 221.013l1.707-3.413c11.947-34.987 29.013-67.413 48.64-98.133 12.8-19.627 27.307-38.4 42.667-55.467 4.267-5.12 8.533-11.093 13.653-15.36 2.56-1.707 5.12-4.267 6.827-6.827 3.413-3.413 6.827-5.973 10.24-9.387 1.707-2.56 4.267-5.12 6.827-8.533 4.267-4.267 10.24-7.68 15.36-11.093 2.56-1.707 4.267-4.267 6.827-5.973 1.707-1.707 1.707-2.56 1.707-3.413 0 0 0 0 0 0 3.413 0 3.413-3.413 5.973-3.413l5.973-3.413c81.067-60.587 180.907-96.427 289.28-96.427 133.12 0 254.293 54.613 342.187 141.653 87.040 87.893 141.653 209.067 141.653 342.187 0 133.12-54.613 254.293-141.653 342.187-87.893 87.040-209.067 141.653-342.187 141.653-133.12 0-254.293-54.613-342.187-141.653-87.040-87.893-141.653-209.067-141.653-342.187 0-57.173 10.24-111.787 28.16-162.987zM770.56 714.24c8.533-6.827 17.067-13.653 24.747-21.333-66.56-72.533-151.040-123.733-238.080-157.013-57.173 105.813-117.76 189.44-162.987 250.027 16.213 5.12 32.427 9.387 48.64 11.947 18.773 3.413 37.547 5.12 57.173 5.973 65.707 0.853 134.827-13.653 194.56-41.813 27.307-13.653 52.907-29.013 75.947-47.787zM332.8 763.733c41.813-57.173 104.107-144.213 163.84-249.173-145.92-44.373-296.96-53.76-396.8-51.2 16.213 84.48 57.173 159.573 115.2 217.6 34.133 33.28 73.387 61.44 117.76 82.773zM93.013 403.627h40.107c108.373 0 252.587 11.947 394.24 57.173 11.947-23.893 26.453-51.2 39.253-78.507-185.173-56.32-302.080-192.853-362.667-283.307-24.747 27.307-46.080 57.173-63.147 89.6-20.48 44.373-35.84 94.72-44.373 139.093-2.56 18.773-4.267 37.547-4.267 56.32 0 6.827 0 12.8 0.853 19.627zM246.613 58.88c52.053 87.040 160.427 219.307 340.48 269.653 41.813-101.547 77.653-212.48 93.013-329.387-51.2-22.187-108.373-34.987-168.107-34.987-100.693 0-192.853 35.84-265.387 94.72zM740.693 31.573c-17.92 110.933-51.2 215.893-90.453 311.467 78.507 11.947 171.52 11.947 277.333-14.507-8.533-56.32-34.133-127.147-72.533-186.88-14.507-19.627-29.867-37.547-46.080-54.613-21.333-20.48-43.52-39.253-68.267-55.467zM931.84 389.12c-119.467 26.453-218.453 26.453-305.493 8.533-11.947 29.867-27.307 57.173-39.253 84.48 90.453 35.84 177.493 89.6 249.173 168.107 58.88-71.68 93.867-162.133 95.573-261.12z"  horiz-adv-x="1024" />

    
    <glyph glyph-name="mubiao" unicode="&#58944;" d="M513.411692384375 521.8752429599999c-76.54507219125 0-138.65951619-62.11444399874999-138.65951714062498-138.65951619 0-76.54507219125 62.11444399874999-138.65951619 138.65951714062498-138.65951619 76.54507219125 0 138.65951619 62.11444399874999 138.65951619 138.65951619-0.31370910187499995 76.54507219125-62.428153100625 138.65951619-138.65951619 138.65951619z m0-214.263461075625c-41.723339068125 0-75.603944885625 33.880605817500005-75.603944885625 75.603944885625s33.880605817500005 75.603944885625 75.603944885625 75.603944885625 75.603944885625-33.880605817500005 75.60394393499999-75.603944885625-33.880605817500005-75.603944885625-75.60394393499999-75.603944885625z m455.81963207625 107.28858508875h-33.566896715625c-3.450802021875 46.11526934625-14.116919090625 90.661991281875-31.998349304999998 133.32645860625001-21.332233186874998 50.507199624375-51.7620369825 95.681340714375-90.6619922325 134.581295964375-38.89995525 38.89995525-84.07409634000001 69.329758095-134.58129501375 90.661991281875-42.664466373749995 17.881431165-87.52489836187499 28.861256385-133.640167708125 31.998350255625V839.3490688987499c0 17.254012010625-14.116919090625 31.370931101249994-31.370931101249994 31.370931101249994s-31.370931101249994-14.116919090625-31.370932051875002-31.370931101249994v-33.566896715625c-46.11526934625-3.450802021875-90.661991281875-14.116919090625-133.326457655625-31.998350255625-50.507199624375-21.64594228875-95.99504981625-52.075746084375-134.89500506624998-90.97570038375C174.91934236062502 643.90816629375 144.48953951562504 598.420316101875 123.15730537812505 548.226825579375c-17.881431165-42.664466373749995-28.861256385-87.21118926-31.998349304999998-133.32645860625001H56.65093110125002c-17.254012010625 0-31.370931101249994-14.116919090625-31.370931101249994-31.370931101249994s14.116919090625-31.370931101249994 31.370931101249994-31.370931101249994h34.508024971875c3.450802021875-46.11526934625 14.116919090625-90.661991281875 31.998349304999998-133.32645860625001 21.332233186874998-50.507199624375 51.7620369825-95.681340714375 90.6619922325-134.58129501375 38.89995525-38.89995525 84.07409634000001-69.329758095 134.58129501375-90.6619922325 42.664466373749995-17.881431165 87.21118926-28.861256385 133.32645860625001-31.998349304999998v-32.312059357500004c0-17.254012010625 14.116919090625-31.370931101249994 31.370931101249994-31.370932051875002s31.370931101249994 14.116919090625 31.370932051875002 31.370932051875002V-39.037009541250086c46.11526934625 3.450802021875 90.661991281875 14.116919090625 133.326457655625 31.998350255625 50.507199624375 21.332233186874998 95.681340714375 51.7620369825 134.581295964375 90.661991281875 38.89995525 38.89995525 69.329758095 84.07409634000001 90.661991281875 134.581295964375 17.881431165 42.664466373749995 28.861256385 87.21118926 31.998350255625 133.326457655625h33.566896715625c17.254012010625 0 31.370931101249994 14.116919090625 31.370931101249994 31.370932051875002 0.94112825625 17.881431165-13.175790834374999 31.998350255625-30.743512897499997 31.998349304999998zM544.782623485625 24.332271815625063v73.40797927125c0 17.254012010625-14.116919090625 31.370931101249994-31.370931101249994 31.370932051875002s-31.370931101249994-14.116919090625-31.370932051875002-31.370932051875002v-73.40797927125c-173.794959365625 15.058047346874998-312.768185608125 153.717563536875-327.82623200437496 327.512523853125h76.858781293125c17.254012010625 0 31.370931101249994 14.116919090625 31.370931101249994 31.370931101249994s-14.116919090625 31.370931101249994-31.370931101249994 31.370931101249994H154.21452832812503c15.058047346874998 173.48125026375 153.717563536875 312.45447650625 327.51252290250005 327.512523853125v-70.898305505625c0-17.254012010625 14.116919090625-31.370931101249994 31.370931101249994-31.370931101249994s31.370931101249994 14.116919090625 31.370932051875002 31.370931101249994V742.4128908262501C718.5775828512501 727.354843479375 857.237099991875 588.3816181875 872.295146388125 414.90036697312496h-77.17249134562499c-17.254012010625 0-31.370931101249994-14.116919090625-31.370931101249994-31.370931101249994s14.116919090625-31.370931101249994 31.370931101249994-31.370931101249994H872.295146388125c-15.058047346874998-174.108669418125-153.717563536875-312.768185608125-327.51252290250005-327.82623295499997z"  horiz-adv-x="1026" />

    
    <glyph glyph-name="addmark" unicode="&#58917;" d="M245.464 178.174c39.241-32.944 98.711-4.198 117.115 4.745l92.353 40.001 39.545 17.491 317.092 377.688c51.926 61.843 54.725 112.917 8.365 151.853l-93.175 78.238c-46.39 38.937-96.217 27.347-148.142-34.495l-318.035-378.784-5.75-24.64 0.152-0.122-6.662-27.955-0.030-0.030-20.077-84.109c-4.319-13.993-23.728-85.418 17.248-119.883zM625.221 774.576c39.119 46.602 51.499 36.199 62.421 27.043l93.175-78.238c10.921-9.156 23.302-19.56-15.818-66.163l-39.119-46.602-139.777 117.359 39.119 46.602zM546.982 681.372l139.777-117.359-215.187-256.253-139.777 117.359 215.187 256.253zM286.866 281.995l20.199 84.444 110.971-93.205-80.824-35.042c-41.006-19.803-52.565-13.507-52.656-13.445-5.232 4.441-5.445 31.453 2.312 57.249zM171.273-41.881h669.227v-60.839h-669.227z"  horiz-adv-x="1024" />

    
    <glyph glyph-name="QQ" unicode="&#59082;" d="M512 896c-282.624 0-512-229.376-512-512s229.376-512 512-512 512 229.376 512 512-229.376 512-512 512zM738.816 259.072s-16.384-44.032-46.080-83.968c0 0 53.248-17.92 48.64-65.024 0 0 1.536-52.224-113.664-48.64 0 0-80.896 6.144-105.472 40.448h-21.504c-24.576-34.304-105.472-40.448-105.472-40.448-115.2-3.584-113.664 48.64-113.664 48.64-4.608 47.104 48.64 65.024 48.64 65.024-29.696 39.936-46.080 83.968-46.080 83.968-72.192-116.224-65.024 16.384-65.024 16.384 13.312 78.336 70.144 130.048 70.144 130.048-8.192 71.168 21.504 83.968 21.504 83.968 6.144 220.672 195.584 216.576 199.68 216.576 4.096 0 193.536 4.096 199.68-216.576 0 0 29.696-12.8 21.504-83.968 0 0 56.832-51.2 70.144-130.048v-9.216c2.048-28.16-3.072-104.448-62.976-7.168zM803.84 266.24c0-28.16-5.12-103.936-65.024-7.168 0 0-16.384-44.032-46.080-83.968 0 0 53.248-17.92 48.64-65.024 0 0 1.536-52.224-113.664-48.64 0 0-80.896 6.144-105.472 40.448h-21.504c-24.576-34.304-105.472-40.448-105.472-40.448-115.2-3.584-113.664 48.64-113.664 48.64-4.608 47.104 48.64 65.024 48.64 65.024-29.696 39.936-46.080 83.968-46.080 83.968-72.192-116.224-65.024 16.384-65.024 16.384 13.312 78.336 70.144 130.048 70.144 130.048-8.192 71.168 21.504 83.968 21.504 83.968 6.144 220.672 195.584 216.576 199.68 216.576 4.096 0 193.536 4.096 199.68-216.576 0 0 29.696-12.8 21.504-83.968 0 0 56.832-51.2 70.144-130.048 2.048 0 2.048-4.096 2.048-9.216z"  horiz-adv-x="1024" />

    
    <glyph glyph-name="quanzi_renshu" unicode="&#59068;" d="M823.279 386.535c47.373 42.978 76.313 104.845 76.313 172.229 0 128.356-104.054 232.411-232.411 232.411-21.392 0-38.735-17.343-38.735-38.735s17.343-38.735 38.735-38.735c85.572 0 154.941-69.369 154.941-154.941 0-66.469-42.242-124.895-104-146.384-20.204-7.030-30.885-29.111-23.854-49.314 3.519-10.11 10.804-17.837 19.738-22.151 5.318-3.503 11.748-5.747 18.673-6.163 128.727-21.066 205.817-145.846 205.817-319.188 0-21.392 17.343-38.735 38.735-38.735s38.735 17.343 38.735 38.735c0 172.628-68.469 312.452-192.689 370.972zM539.882 376.212c53.938 42.56 88.564 108.512 88.564 182.552 0 128.356-104.054 232.411-232.411 232.411s-232.411-104.054-232.411-232.411c0-74.042 34.625-139.991 88.564-182.552-142.698-57.112-243.503-196.647-243.503-359.742 0-21.392 17.343-38.735 38.735-38.735s38.735 17.343 38.735 38.735c0 171.145 138.738 309.882 309.882 309.882s309.882-138.738 309.882-309.882c0-21.392 17.343-38.735 38.735-38.735s38.735 17.343 38.735 38.735c0 163.094-100.805 302.63-243.503 359.742zM241.094 558.763c0 85.572 69.369 154.941 154.941 154.941s154.941-69.369 154.941-154.941-69.369-154.941-154.941-154.941-154.941 69.37-154.941 154.941z"  horiz-adv-x="1024" />

    
    <glyph glyph-name="weixin" unicode="&#58900;" d="M579.598841 384.445217A24.635362 24.635362 0 0 1 556.521739 360.255072a24.264348 24.264348 0 0 1 23.373913-21.667246c17.511884 0 29.681159 10.833623 29.68116 21.667246 0 13.356522-12.54029 24.190145-29.68116 24.190145zM502.798841 497.011014a27.826087 27.826087 0 0 1 29.681159 29.16174 27.38087 27.38087 0 0 1-29.681159 29.161739c-17.511884 0-34.207536-10.833623-34.207537-29.161739s16.695652-29.161739 34.207537-29.16174zM512 896a512 512 0 1 1 512-512A512 512 0 0 1 512 896zM415.536232 254.293333a275.812174 275.812174 0 0 0-82.587826 13.356522l-84.591305-42.592464 24.190145 71.754203C213.333333 338.513623 178.086957 391.42029 178.086957 455.308986c0 113.456232 106.777971 200.347826 236.929855 200.347826 115.088696 0 217.711304-68.415072 237.449275-165.175653a115.533913 115.533913 0 0 1-22.26087 2.522899c-113.456232 0-201.015652-85.110725-201.015652-187.65913a201.089855 201.089855 0 0 1 6.678261-50.086957 175.044638 175.044638 0 0 0-20.851014-0.816232z m347.863188-81.623188l16.695652-60.030145-63.369275 35.84c-24.190145-4.971594-47.564058-12.54029-71.754203-12.54029-111.749565 0-200.347826 76.725797-200.347826 171.853913s88.449855 171.853913 200.347826 171.853913c105.590725-0.148406 200.941449-76.874203 200.941449-172.002319 0-53.351884-35.84-100.915942-82.587826-135.123478zM337.623188 555.408696c-17.511884 0-35.84-10.833623-35.84-29.161739s18.328116-29.235942 35.84-29.235943a28.716522 28.716522 0 0 1 29.68116 29.235943 28.197101 28.197101 0 0 1-29.68116 29.161739z m372.869566-170.666667a24.041739 24.041739 0 0 1-23.373913-24.190145 23.596522 23.596522 0 0 1 23.373913-21.667246c16.695652 0 29.161739 10.833623 29.161739 21.667246 0 13.356522-12.54029 24.190145-29.161739 24.190145z m0 0"  horiz-adv-x="1024" />

    
    <glyph glyph-name="tupian" unicode="&#58998;" d="M934.934 791.828h-845.868c-33.042 0-60.421-27.388-60.421-60.421v-694.819c0-33.041 27.377-60.421 60.421-60.421h845.868c33.042 0 60.421 27.377 60.421 60.421v694.821c-0.001 33.032-27.378 60.418-60.421 60.418zM934.934 36.59h-845.868v177.477l242.624 235.065 250.174-249.227c10.383-12.268 27.377-11.329 41.529-0.949l110.454 100.073 198.252-204.853c0.948 0 1.885-0.949 2.833-1.894v-55.693zM934.934 178.192l-177.477 182.204c-11.329 10.384-27.377 12.268-39.654 1.885l-114.226-99.126-249.236 247.343c-5.665 6.612-13.214 10.384-21.712 11.329-8.497 0.937-16.047-1.885-22.649-8.497l-220.912-214.299v432.378h845.868v-553.218zM723.468 489.733c33.042 0 60.421 26.429 60.421 60.421 2.833 50.973-68.917 82.131-102.906 42.478-39.644-34.928-8.487-105.73 42.487-102.896z"  horiz-adv-x="1024" />

    
    <glyph glyph-name="qizi" unicode="&#58935;" d="M914.572 476.511c1.438 15.934-6.086 32.091-20.803 40.611l-722.595 297.447v34.193c0 17.152-13.833 30.984-30.984 30.984s-30.984-13.833-30.984-30.984v-929.524c0-17.152 13.833-30.984 30.984-30.984s30.984 13.833 30.984 30.984v228.509l722.595 298.333c3.431 1.992 5.865 4.094 8.631 6.086 1.107 0.553 1.992 1.217 2.988 2.103 1.658 1.55 2.766 3.099 3.984 4.647l0.112 0.112c3.762 4.647 5.754 9.628 5.202 15.492 0.112 0.443 0.112 0.774 0.112 1.217-0.112 0.221-0.112 0.553-0.221 0.774zM171.174 221.444v523.079l643.032-261.152-643.032-261.926z"  horiz-adv-x="1024" />

    
    <glyph glyph-name="shoucang" unicode="&#59071;" d="M795.615446684375-89.9192655447655c-11.948942229046875 0-23.922220077843747 2.968983610734375-36.893272239281245 9.880387671374997L557.269334704953 24.800315028843784a39.54588815896874 39.54588815896874 0 0 1-19.955464008187498 4.940193835687499c-6.960076227 0-14.94226145953125-1.9712102249531247-19.955464008187498-3.9424213767656244l-200.43073073460937-105.83696536115625a72.35072437612499 72.35072437612499 0 0 0-37.89104469820313-9.880387671374997c-23.94655662445312 0-46.87100424337499 10.878161057156252-62.83537470843749 28.667727101812496-15.964371391921876 17.81390166440625-21.95100985289062 41.541434930531246-17.959917236625 65.26896726979687l38.913153703734366 221.55431932054688a44.16971523046875 44.16971523046875 0 0 1-12.971051234578123 37.574677934015625l-161.56624827037498 155.26324211835936c-22.924447618921874 21.780658660921873-30.906632851453125 53.44170499321874-20.928900847359373 83.10720548081248a82.20677642775001 82.20677642775001 0 0 0 65.80435831917188 55.38858052528125l223.40384959303125 32.61014755171875c13.944489000609373 1.9955467715625 26.9155402351875 10.902497603765623 32.90217962301563 22.75409550009375l99.72864694771874 201.7692074311875A80.84396411142187 80.84396411142187 0 0 0 536.3404338575938 858.549323230125c30.906632851453125 0 58.81994647242187-16.791792658874996 72.78877016592187-44.51041854126562l99.72864694771874-201.74487088457812c6.984411846749999-12.87370782871875 18.95769062240625-20.78288527514062 32.90217962301563-22.754096426953122l223.40384959303125-32.63448317146875c30.906632851453125-4.964530382296875 55.8509628616875-25.72307911082812 65.82869393892186-54.415142759249996 9.977732004093749-29.665500487593743 1.9955467715625-61.326546819890616-19.955463081328123-83.0585342413125l-160.5684758114531-156.2853511238906c-10.951168843265625-9.880387671374997-14.966598006140623-23.727533266124997-12.971051234578123-37.574677934015625l37.9153812448125-220.5565459347656c3.991092616265625-23.727533266124997-1.9955467715625-47.455066532249994-17.959917236625-65.26896726979687a79.18912065065625 79.18912065065625 0 0 0-61.81326570290625-29.68983703420312z m-12.946715614828124 60.32877343410937c4.964530382296875-1.9955467715625 8.9556229985625-2.968983610734375 11.948942229046875-2.968983610734375 6.984411846749999 0 13.968824620359374 2.968983610734375 18.95769062240625 8.906950832203124a23.630188933406245 23.630188933406245 0 0 1 4.9888660020468745 18.787339430437495l-37.891045625062496 220.5565459347656c-5.9866393878281245 31.636710712546876 4.9888660020468745 66.26674065557812 28.911086079890623 88.02306369675l160.5684758114531 157.23445234331248c5.9866393878281245 5.93796722146875 7.98218523253125 14.844918053671874 5.986638460968749 24.725306651906248a22.486400902265625 22.486400902265625 0 0 1-19.955463081328123 15.818354892843745l-223.4038505198906 32.65881971807812c-32.90217962301563 4.940193835687499-61.81326570290625 24.725306651906248-75.78208939640626 54.3908071395l-99.72864694771874 200.77143311854687c-3.991092616265625 8.906950832203124-11.973277848796874 12.84937220896875-20.928900847359373 12.84937220896875-9.0042942380625 0-16.962143850843752-4.940193835687499-21.95101077975-13.822809048140623l-99.72864602085936-199.79799627937496c-13.968824620359374-28.667727101812496-42.879910700249994-49.450612376953124-75.806426869875-54.3908071395l-223.37951397328126-32.634484098328116a25.7960868969375 25.7960868969375 0 0 1-18.95769062240625-15.818354892843745v-0.99777338578125c-2.9933192304843743-8.906950832203124-0.973436839171875-16.816128278625 5.9866393878281245-23.751868885875l161.56624827037498-157.23445234331248c23.94655662445312-22.75409550009375 33.8999520819375-55.38857959842188 28.911087006749998-88.02306369675L255.09007463131258-4.889522005359254c-0.973436839171875-4.940193835687499-0.973436839171875-11.8759344429375 4.9888660020468745-17.81390166440625 4.9888660020468745-5.93796722146875 11.973277848796874-8.906950832203124 18.95769062240625-8.906950832203124 4.9888660020468745 0 7.98218523253125 0.99777338578125 10.951168843265625 1.9955467715625l201.45283974014063 104.83919197537499c12.971051234578123 7.9091774464218725 28.935422626499996 11.8515988231875 45.897566477343744 11.8515988231875 14.94226145953125 0 30.906632851453125-3.9424204499062494 45.87323085759375-11.8515988231875l199.4572938954375-104.83919197537499z"  horiz-adv-x="1076" />

    
    <glyph glyph-name="youfanye" unicode="&#58962;" d="M345.074373-128a43.326921 43.326921 0 0 1 35.325883 18.168422l333.790597 468.075168a43.326921 43.326921 0 0 1 0.028885 50.288113L380.42914 877.762255A43.326921 43.326921 0 0 1 309.777375 827.531911l315.939906-444.100938L309.806259-59.51458100000002a43.38469 43.38469 0 0 1 35.268114-68.485419z"  horiz-adv-x="1024" />

    
    <glyph glyph-name="yanjing" unicode="&#58914;" d="M50.88 341.376a35.584 35.584 0 0 0-31.104 52.736c7.36 13.376 184.064 327.936 491.072 327.936 306.816 0 485.824-314.368 493.312-327.744a35.52 35.52 0 1 0-62.08-34.624c-1.664 2.816-166.528 291.2-431.232 291.2-265.408 0-427.136-288.192-428.736-291.072a35.712 35.712 0 0 0-31.232-18.432zM510.848 31.871999999999957c-307.008 0-483.712 314.56-491.072 327.936a35.584 35.584 0 0 0 62.336 34.368c1.6-2.88 164.16-291.136 428.8-291.136 264.704 0 429.568 288.384 431.168 291.328a35.52 35.52 0 1 0 62.08-34.752c-7.488-13.376-186.496-327.744-493.312-327.744zM512 187.77599999999995a189.312 189.312 0 0 0-189.12 189.12A189.312 189.312 0 0 0 512 566.0160000000001a189.312 189.312 0 0 0 189.12-189.12A189.312 189.312 0 0 0 512 187.77599999999995z m0 307.136a118.144 118.144 0 0 1-118.016-118.016c0-65.024 52.928-118.016 118.016-118.016a118.144 118.144 0 0 1 118.016 118.016A118.144 118.144 0 0 1 512 494.912z"  horiz-adv-x="1024" />

    
    <glyph glyph-name="pingpangkongxin" unicode="&#58925;" d="M945.528 286.199c20.386 50.268 30.721 103.378 30.721 157.85s-10.336 107.583-30.72 157.852c-21.113 52.062-52.119 98.76-92.156 138.797-40.036 40.038-86.735 71.043-138.797 92.155-50.269 20.384-103.377 30.72-157.85 30.72s-107.582-10.335-157.852-30.72c-52.062-21.112-98.76-52.117-138.797-92.155-33.808-33.808-61.346-72.838-81.851-116.007-19.768-41.615-32.564-86.106-38.035-132.236-9.884-83.348 5.147-168.226 42.417-241.861l-148.53-128.595c-3.345-2.908-6.043-6.465-7.914-10.485-4.033-1.345-8.977-15.894-7.314-30.979 1.396-12.662 7.342-24.823 16.745-34.25l124.469-125.621c9.434-9.434 21.616-15.397 34.303-16.795 1.92-0.211 3.832-0.316 5.727-0.316 12.99 0 25.21 4.907 34.182 13.879 0.482 0.482 0.947 0.978 1.397 1.49l132.194 150.417c34.602-17.455 71.415-29.997 109.708-37.32 23.792-4.774 51.143-7.507 79.131-7.507 19.109 0 37.921 1.274 56.355 3.741 42.792 5.587 86.177 18.531 126.795 38.234 42.018 20.382 80.21 47.605 113.517 80.911 40.037 40.040 71.043 86.739 92.155 138.8zM381.835 133.768c-34.321 19.555-63.468 43.843-87.732 72.408 69.616-61.872 52.344-65.332 42.663-77.351-4.407-3.19-7.906-7.373-10.21-12.232l-128.392-144.24-110.821 111.844 151.376 131.061c3.629 3.168 6.517 7.088 8.436 11.525 7.273 0.675 11.167 18.681 2.801 32.838-34.475 58.335-50.377 124.544-48.786 190.16l364.464-361.523c-62.874-1.669-126.49 13.167-183.8 45.51zM644.63 99.208c-0.331 0.362-0.671 0.72-1.024 1.070l-428.636 425.177c-3.432 3.396-7.63 6.024-12.311 7.603 24.096 57.584 55.538 116.037 102.28 162.777 67.254 67.255 156.674 104.295 251.787 104.295 95.112 0 184.532-37.040 251.786-104.294 67.254-67.255 104.293-156.673 104.293-251.786 0-95.114-37.039-184.533-104.294-251.787-46.318-46.318-103.257-77.642-163.88-93.055zM823.302-4.489c0-49.356 40.011-89.367 89.367-89.367s89.367 40.011 89.367 89.367c0 49.356-40.011 89.367-89.367 89.367-49.356 0-89.367-40.011-89.367-89.367z"  horiz-adv-x="1024" />

    
    <glyph glyph-name="wangqiu1" unicode="&#58926;" d="M169.41 722.17c-187.046-187.057-187.038-490.295 0-677.353 187.038-187.032 490.375-187.032 677.423 0 187.038 187.057 187.038 490.295 0 677.353-187.047 187.038-490.385 187.038-677.423 0zM502.044 18.736c-10.064 1.487-16.751 2.486-20.907-1.665-1.343-1.352-3.427-4.407-2.12-9.461 1.557-5.945 7.025-11.916 15.409-16.813 8.242-4.838 20.342-8.634 33.795-9.437 0.839-4.15 1.564-8.302 2.31-12.472-113.886-6.089-229.735 33.794-316.504 120.543-82.203 82.193-122.539 190.502-121.399 298.461 11.514-1.525 22.903-3.327 34.151-5.599-3.161-5.463-6.594-10.377-9.545-14.526-6.035-8.498-10.019-14.080-7.812-19.776 0.788-2.054 2.707-4.739 7.265-5.735 9.007-2.015 22.189 3.993 33.587 15.391 4.929 4.955 9.095 10.573 12.555 16.542 19.989-5.558 39.27-12.645 58.159-20.459-2.183-2.507-4.336-4.853-6.333-6.853l-10.383-10.044c-4.077-4.051-7.964-8.477-6.965-13.707 0.392-2.115 1.797-5.070 6.035-6.91 11.409-4.971 32.385 3.152 47.754 18.561 1.254 1.231 2.178 2.663 3.333 3.973 18.477-9.24 36.188-19.755 53.285-31.091-4.946-3.818-9.896-7.244-14.204-10.023-4.798-3.075-8.59-5.501-11.096-8.008-2.634-2.624-3.824-5.445-3.564-8.361 0.192-1.918 1.146-4.776 4.583-7.107 10.479-7.265 34.866-3.094 54.561 12.101 16.304-12.572 31.693-26.215 46.339-40.608-5.644-2.858-11.234-5.129-15.987-7.007-6.804-2.683-11.731-4.623-14.615-7.501-3.961-3.954-3.812-9.434 0.319-13.565 4.286-4.407 11.987-6.871 21.698-6.951 9.531-0.056 21.862 2.664 33.873 8.635 13.69-15.489 26.321-31.877 38.096-48.909-6.143-1.742-12.076-2.899-17.116-3.837-8.484-1.588-14.111-2.625-17.378-5.895-2.536-2.524-4.028-7.067-0.706-12.042 3.363-5.148 10.45-9.044 19.922-11.002 9.393-1.898 22.090-1.546 35.121 2.057 10.51-17.781 19.833-36.261 28.175-55.292-6.45-0.548-12.595-0.548-17.776-0.529-9.884 0.079-15.849 0.136-19.589-3.622-1.269-1.272-3.979-4.853-1.605-10.572 2.334-5.698 8.556-10.868 17.523-14.549 8.889-3.681 21.497-5.794 35.045-4.679 3.907-11.004 7.109-22.263 10.27-33.577-6.414 0.355-12.444 1.159-17.555 1.922zM802.224 89.438c-64.114-64.099-144.141-102.453-227.471-115.845-1.037 6.014-2.183 11.963-3.425 17.956 6.677 3.954 12.042 8.36 15.839 12.155 12.305 12.274 18.874 26.999 16.358 36.552-1.195 4.561-3.944 6.382-6.039 7.086-5.795 1.979-11.238-2.248-19.482-8.671-4.346-3.368-9.48-7.341-15.373-10.985-3.659 13.176-7.802 26.159-12.402 38.963 2.289 1.842 4.661 3.503 6.774 5.598 15.394 15.391 23.313 35.633 18.468 47.048-1.811 4.288-4.729 5.697-6.858 6.11-5.345 1.037-9.829-2.917-14.742-7.812l-7.519-7.656c-2.818-2.8-6.187-5.873-9.8-8.907-9.359 21.401-19.962 42.133-31.824 62.084 16.963 19.854 22.183 45.914 14.802 56.837-2.311 3.466-5.15 4.428-7.097 4.638-2.949 0.276-5.817-0.937-8.488-3.6-2.469-2.488-4.894-6.188-7.968-10.867-3.095-4.702-6.996-10.165-11.436-15.586-13.181 19.128-27.459 37.433-42.883 54.801 13.142 22.987 13.114 49.359 3.769 58.737-2.143 2.133-4.503 3.233-7.043 3.209-1.67 0-4.19-0.489-6.59-2.898-2.858-2.838-4.841-7.715-7.587-14.448-2.12-5.229-4.717-11.434-8.155-17.738-16.594 16.366-34.165 31.736-52.739 45.972 4.694 13.981 5.233 27.898 3.314 38.003-1.797 9.593-5.619 16.758-10.726 20.225-5.033 3.427-9.568 1.92-12.118-0.645-3.271-3.25-4.361-8.792-6.034-17.268-1.103-5.501-2.418-12.079-4.572-18.836-19.345 12.884-39.541 24.65-60.549 35.106 1.886 14.527-0.21 28.214-4.004 37.768-3.612 9.065-8.752 15.43-14.443 17.856-5.736 2.447-9.325-0.275-10.623-1.548-3.714-3.72-3.739-9.652-3.769-19.499-0.025-5.619-0.057-12.276-0.867-19.267-21.406 8.908-43.436 16.643-66.147 22.868-0.939 14.644-5.621 27.684-11.175 36.299-5.257 8.186-11.492 13.412-17.532 14.704-4.87 1.037-7.783-0.979-9.072-2.25-4.268-4.288-2.975-11.024-1.052-21.184 1.052-5.502 2.281-12.081 2.849-19.089-13.549 2.761-27.283 5.13-41.203 6.892 10.525 89.691 49.778 176.602 118.427 245.265 65.687 65.67 148.105 104.277 233.645 116.751 0.662-5.835 1.195-11.629 2.047-17.445 1.214-8.243 2.642-16.427 4.21-24.571-6.8 0.627-13.142 1.92-18.481 2.975-10.215 2.076-16.951 3.408-21.274-0.901-1.282-1.272-3.279-4.13-2.278-9.007 2.664-12.883 24.186-27.312 50.275-29.329 5.897-22.652 13.17-44.815 21.77-66.354-6.71-0.627-13.078-0.627-18.458-0.588-9.922 0.079-15.883 0.118-19.647-3.622-1.263-1.272-3.974-4.855-1.575-10.592 3.309-7.928 14.352-14.841 28.849-17.993 5.644-1.274 14.972-2.252 25.732-1.135 10.123-21.087 21.605-41.448 34.303-61.066-6.412-1.881-12.628-3.074-17.907-4.052-8.506-1.605-14.126-2.664-17.425-5.933-2.537-2.545-4.045-7.029-0.696-12.079 3.407-5.13 10.554-9.007 20.109-10.925 9.848-1.978 23.317-1.587 37.032 2.584 13.971-18.678 29.216-36.476 45.544-53.392-5.981-3.093-11.883-5.482-16.906-7.439-6.822-2.703-11.737-4.661-14.631-7.557-3.936-3.955-3.821-9.378 0.294-13.589 4.304-4.365 12.054-6.833 21.776-6.892 10.084-0.079 23.289 2.918 35.946 9.672 13.48-12.237 27.607-23.886 42.398-34.889 4.034-2.994 8.204-5.815 12.295-8.693-5.227-4.131-10.474-7.811-15.035-10.73-4.796-3.073-8.594-5.501-11.081-7.989-2.641-2.642-3.837-5.442-3.563-8.377 0.176-1.937 1.107-4.758 4.561-7.127 10.846-7.441 36.356-2.681 56.328 13.626 20.010-12.216 40.685-23.004 61.832-32.499-2.37-2.742-4.742-5.327-6.932-7.519l-10.152-9.848c-4.122-4.112-8.068-8.596-7.078-13.822 0.411-2.134 1.818-5.089 6.070-6.931 11.433-4.973 32.442 3.21 47.811 18.6 1.701 1.701 3.014 3.603 4.503 5.424 21.976-8.163 44.423-14.861 67.206-20.148-3.279-5.716-6.882-10.845-9.946-15.173-6.041-8.516-10.035-14.096-7.822-19.815 0.783-2.056 2.731-4.716 7.244-5.695 9.027-2.055 22.25 4.034 33.656 15.448 5.345 5.326 9.885 11.434 13.491 17.994 1.498-0.253 2.976-0.548 4.462-0.783-14.932-79.452-52.953-155.361-114.293-216.701zM922.211 349.738c-0.449 0.079-0.889 0.198-1.36 0.275-1.233 13.921-5.678 26.255-11.002 34.538-5.248 8.085-11.413 13.236-17.349 14.509-4.929 1.077-7.85-0.959-9.161-2.25-4.269-4.288-2.996-11.001-1.077-21.224 1.018-5.305 2.194-11.61 2.77-18.384-20.196 4.699-40.146 10.413-59.649 17.582 1.431 13.921-0.585 26.882-4.227 36.025-3.601 8.928-8.674 15.174-14.266 17.562-5.783 2.526-9.427-0.236-10.698-1.526-3.741-3.739-3.757-9.691-3.818-19.538-0.017-5.385-0.077-11.748-0.782-18.425-18.836 8.477-37.319 17.796-55.164 28.584 4.013 13.316 4.534 26.393 2.681 36.006-1.811 9.495-5.608 16.583-10.622 19.971-5.111 3.464-9.651 1.978-12.237-0.606-3.272-3.271-4.386-8.849-6.050-17.308-1.039-5.209-2.29-11.317-4.23-17.601-3.642 2.566-7.518 4.757-11.121 7.439-13.019 9.712-25.492 19.989-37.414 30.739 11.983 22.496 11.659 47.557 2.642 56.584-2.173 2.194-4.542 3.288-7.127 3.288-1.665 0-4.189-0.489-6.598-2.898-2.878-2.878-4.866-7.734-7.636-14.469-2.036-5.012-4.482-10.906-7.693-16.916-14.39 14.938-27.851 30.641-40.256 47.087 15.859 19.619 20.576 44.522 13.47 55.114-2.348 3.544-5.169 4.505-7.146 4.701-2.968 0.293-5.827-0.92-8.517-3.623-2.486-2.467-4.885-6.148-7.951-10.846-2.995-4.544-6.756-9.809-10.979-14.999-11.218 17.366-21.369 35.379-30.407 53.998 1.753 1.509 3.661 2.779 5.307 4.426 15.35 15.311 23.301 35.497 18.49 46.874-1.81 4.346-4.777 5.735-6.917 6.167-5.386 1.058-9.927-2.936-14.901-7.89l-7.322-7.478c-2.831-2.839-6.031-5.736-9.417-8.594-7.598 19.088-14.079 38.709-19.374 58.776 6.385 3.564 12.366 7.989 17.561 13.197 11.288 11.257 17.122 23.828 15.244 32.737-0.938 4.641-3.603 6.599-5.657 7.421-5.658 2.25-11.336-1.665-19.91-7.577-4.386-3.075-9.595-6.655-15.451-9.909-1.369 7.304-2.702 14.606-3.778 21.99-0.724 5.032-1.204 10.084-1.781 15.095 112.085 4.464 225.553-35.497 310.879-120.802 89.641-89.65 129.483-210.354 119.999-327.81z"  horiz-adv-x="1024" />

    
    <glyph glyph-name="yanjing1" unicode="&#58891;" d="M975.5838095719756 513.7823631551443c10.074883258315213 15.111245975151308 6.716229201436305 35.25993357946024-6.716229201436305 47.013604410054135-15.111245975151308 11.753670830593917-35.25993357946024 8.395016773715001-47.013604410054135-6.716229201436305-1.6798664846002136-1.6787875722786973-188.05441764021654-221.63664255971963-409.69321802457927-221.63664255971963-214.91933444596177 0-409.6921391122576 221.63664255971963-411.3709266845363 223.3154301319983-11.754749742915427 13.43245840287261-33.58114600718154 15.111245975151308-47.01468332237567 3.358654056878911-13.43245840287261-11.753670830593917-15.111245975151308-33.58114600718154-3.358654056878911-47.01468332237567 3.358654056878911-5.036362716836093 43.65602926549674-50.371179554611544 107.45966722298088-100.74343802154459l-85.63327095871479-88.99084610327219c-13.43245840287261-13.43245840287261-11.7525919182724-35.25993357946024 1.6798664846002136-47.013604410054135 3.358654056878911-6.716229201436305 11.753670830593917-10.074883258315213 20.149766516630425-10.074883258315213 8.39393786139349 0 16.790033547430003 3.358654056878911 23.50626274886631 10.074883258315213l92.34842124782959 95.705996392387c43.65602926549674-30.22357086262414 95.70707530470848-58.76835415296958 152.79556297307786-78.915962844957l-35.26101249178174-119.21441696589633c-5.036362716836093-18.468821119708707 5.038520541479126-36.93872115173893 23.507341661187834-41.97616278089652h10.073804345993702c15.111245975151308 0 28.544783290345443 10.074883258315213 31.902358434902833 25.186129233466524l35.25993357946024 119.21441696589633c26.86491680574522-5.037441629157606 55.40970009609065-8.396095686036517 83.9534044741146-8.396095686036517s57.088487668369346 3.358654056878911 83.95448338643608 8.396095686036517l35.25885466713871-117.53562939361763c3.359732969200427-15.111245975151308 18.470978944351735-25.18505032114501 31.903437347224354-25.18505032114501 3.358654056878911 0 6.716229201436305 0 8.396095686036517 1.6787875722786973 18.468821119708707 5.038520541479126 28.54370437802392 23.50626274886631 23.507341661187834 41.97616278089652L659.9178003675045 293.82450816770336c57.089566580690885 20.149766516630425 109.13953370758111 48.693470894654354 152.79556297307786 78.915962844957l90.66963367555086-94.02720882010827c6.716229201436305-6.716229201436305 15.111245975151308-10.074883258315213 23.50626274886631-10.074883258315213 8.395016773715001 0 16.791112459751524 3.358654056878911 23.50626274886631 10.073804345993702 13.43245840287261 13.43353731519413 13.43245840287261 33.58114600718154 1.6798664846002136 47.01468332237567l-85.63327095871479 88.98976719095069c68.8432374112848 50.37333737925457 109.14277044454563 99.0657293615874 109.14277044454563 99.0657293615874z"  horiz-adv-x="1024" />

    
    <glyph glyph-name="guankan" unicode="&#59668;" d="M510.523 744.67c-270.99 0-490.673-348.313-490.673-348.313s219.682-348.307 490.673-348.307c278.918-7.328 490.681 348.308 490.681 348.308s-219.683 348.312-490.681 348.312zM509.824 118.148c-231.037 0-418.409 278.912-418.409 278.912s187.371 278.949 418.409 278.949c231.073 0 418.375-278.949 418.375-278.949s-187.302-278.912-418.375-278.912zM507.651 571.6c-96.804 0-175.243-78.439-175.243-175.243s78.439-175.243 175.243-175.243c96.765 0 175.204 78.439 175.204 175.243s-78.439 175.243-175.204 175.243zM507.651 291.216c-58.042 0-105.146 47.032-105.146 105.141 0 58.042 47.073 105.146 105.146 105.146 58.111 0 105.109-47.068 105.109-105.146 0-58.109-46.998-105.141-105.109-105.141zM507.651 291.216z"  horiz-adv-x="1024" />

    
    <glyph glyph-name="jiangpai-" unicode="&#58933;" d="M727.771 40.229l146.286-76.8L731.43 354.743c-7.315 18.286-29.258 29.257-47.543 21.943l-138.972-51.2c-18.285-7.315-29.257-29.257-21.943-47.543L665.6-113.371l62.171 153.6z m-427.885 0l62.171-153.6 142.629 391.314c7.314 18.286-3.657 40.228-21.943 47.543l-138.972 51.2c-18.285 7.314-40.228-3.657-47.542-21.943L153.6-36.571l146.286 76.8zM512 109.714l-175.543-14.628-95.086 146.285-120.685 128 51.2 164.572 25.6 175.543 164.571 62.171L512 859.43l149.943-87.772 164.571-62.171 25.6-175.543 51.2-164.572-120.685-128-95.086-146.285zM512 201.143c142.629 0 256 113.371 256 256s-113.371 256-256 256-256-113.372-256-256 113.371-256 256-256zM468.114 515.657L384 530.286c7.314 25.6 18.286 47.543 40.229 62.171S471.77 614.4 508.343 614.4c40.228 0 69.486-7.314 87.771-21.943s29.257-32.914 29.257-58.514c0-14.629-3.657-25.6-10.971-36.572s-18.286-21.942-32.914-29.257c10.971-3.657 21.943-7.314 29.257-10.971 10.971-7.314 18.286-14.629 25.6-25.6s7.314-21.943 7.314-36.572c0-18.285-3.657-36.571-14.628-51.2s-21.943-29.257-40.229-40.228-40.229-14.629-69.486-14.629c-29.257 0-51.2 3.657-65.828 10.972s-29.257 18.285-40.229 29.257-18.286 29.257-25.6 47.543l87.772 10.971c3.657-18.286 7.314-29.257 14.628-36.571s14.629-10.972 29.257-10.972c10.972 0 21.943 3.657 29.257 14.629s10.972 18.286 10.972 32.914-3.657 25.6-10.972 32.914-18.285 10.972-29.257 10.972c-7.314 0-14.628 0-29.257-3.657l3.657 62.171h10.972c10.971 0 21.943 3.657 29.257 10.972s10.971 14.628 10.971 25.6c0 10.971-3.657 18.285-7.314 21.942s-14.629 7.315-21.943 7.315c-10.971 0-18.286-3.657-25.6-10.972s-18.286-14.628-21.943-29.257z"  horiz-adv-x="1024" />

    
    <glyph glyph-name="jiangpai-1" unicode="&#58938;" d="M669.257-109.714l62.172 153.6 146.285-76.8L735.086 358.4c-7.315 18.286-29.257 29.257-47.543 21.943l-138.972-51.2c-18.285-7.314-29.257-29.257-21.942-47.543l142.628-391.314zM299.886 40.229l62.171-153.6 142.629 391.314c7.314 18.286-3.657 40.228-21.943 47.543l-138.972 51.2c-18.285 7.314-40.228-3.657-47.542-21.943L153.6-36.571l146.286 76.8zM512 109.714l-175.543-14.628-95.086 146.285-120.685 128 51.2 164.572 25.6 175.543 164.571 62.171L512 859.43l149.943-87.772 164.571-62.171 25.6-175.543 51.2-164.572-120.685-128-95.086-146.285zM512 201.143c142.629 0 256 113.371 256 256s-113.371 256-256 256-256-113.372-256-256 113.371-256 256-256zM640 310.857H376.686c3.657 25.6 10.971 51.2 25.6 73.143s43.885 51.2 84.114 80.457c25.6 18.286 40.229 32.914 47.543 43.886s10.971 18.286 10.971 29.257-3.657 18.286-10.971 25.6-14.629 10.971-25.6 10.971c-10.972 0-21.943-3.657-25.6-10.971s-10.972-18.286-14.629-36.571l-87.771 7.314c3.657 25.6 10.971 43.886 18.286 58.514s21.942 25.6 40.228 32.914 40.229 10.972 69.486 10.972c29.257 0 54.857-3.657 73.143-10.972s29.257-18.285 40.228-32.914 14.629-29.257 14.629-47.543-7.314-36.571-18.286-54.857-32.914-36.571-62.171-58.514c-18.286-10.972-29.257-21.943-36.572-25.6s-14.628-10.972-21.943-18.286h135.315v-76.8z"  horiz-adv-x="1024" />

    
    <glyph glyph-name="lajitong" unicode="&#58969;" d="M334.97344608312505 66.56585124750006V540.58477687125a26.421943128749998 26.421943128749998 0 0 0 26.5610062575 26.329234376249996c14.647954376249999 0 35.414674059374995-11.7739887525 35.414674059374995-26.329234376249996v-474.01892562374996c0-14.5088912475-20.720365306875-26.329234376249996-35.414674059374995-26.329234376249996a26.468297505 26.468297505 0 0 0-26.5610062575 26.329234376249996z m141.56598938624998 0V540.58477687125a26.421943128749998 26.421943128749998 0 0 0 26.561005306874996 26.329234376249996c14.647954376249999 0 35.414674059374995-11.7739887525 35.414674059374995-26.329234376249996v-474.01892562374996c0-14.5088912475-20.720365306875-26.329234376249996-35.414674059374995-26.329234376249996a26.468297505 26.468297505 0 0 0-26.561005306874996 26.329234376249996z m150.4196562375 0V540.58477687125c0 14.555245623749999 11.866697505 26.329234376249996 26.5610062575 26.329234376249996s35.414674059374995-11.7739887525 35.414674059374995-26.329234376249996v-474.01892562374996c0-14.5088912475-20.720365306875-26.329234376249996-35.414674059374995-26.329234376249996s-26.561005306874996 11.82034312875-26.5610062575 26.329234376249996z m141.56598938624998-70.9684112475l45.519908118749996 651.6949028118751H213.84969764750002l41.487085940625-633.8021487525c2.87396562375-20.859428435625 6.9067887525-53.5392 53.122011564375-53.5392h433.5979884356249c14.323474693125-0.04635437625 23.4552687525 8.297417188125 26.468297505 35.646445940625z m-26.097463445625-98.17837687125H290.75145764750005c-63.87620594062499 0-95.39711999999999 46.910537505-97.344 80.331977188125L151.78130952875 647.292342811875H51.84146921187505A26.607359683124997 26.607359683124997 0 0 0 25.280463905000033 674.0387656237501c0 14.787017504999998 11.866697505 35.739154693125 26.561005306874996 35.739154693125h247.763657188125V807.9562971881251C298.956166083125 851.3439087525 336.410428895 870.441874693125 370.341766716875 870.441874693125h283.13197687125c16.084937188124997-1.2052118812500001 32.262583128749995 0.27812530687500003 53.122011564375-26.746422811875 18.35629687125-21.044845940625 17.104731564374998-31.474559683124994 17.707336554375-44.639177821874995v-89.2783537425h247.763657188125c14.647954376249999 0 26.51465188125-20.905782811875 26.51465188125-35.739154693125a26.653714059374998 26.653714059374998 0 0 0-26.51465188125-26.792777188124997H873.563892340625l-45.70532562375-689.5199996831251c-0.9270856237499999-14.462536871249998-25.726628435625-60.306925623750004-85.43094906937499-60.306925623750004zM636.044532340625 807.9562971881251H392.49911483562505c-23.22349687125 0-30.964662495-14.045348435625-30.964662495-34.394879683125v-63.78349718812499h300.83931437625v64.432456554375c0 21.183908118749997-14.833371881249999 33.745920316875-26.329234376249996 33.745920316875z"  horiz-adv-x="1024" />

    
    <glyph glyph-name="jiangpai-2" unicode="&#58882;" d="M744.96 51.2l146.432-76.8-142.848 391.168c-7.168 18.432-29.184 29.184-47.616 22.016l-138.752-51.2c-18.432-7.168-29.184-29.184-22.016-47.616l142.848-391.168 61.952 153.6z m-428.032 0l61.952-153.6 142.848 391.168c7.168 18.432-3.584 40.448-22.016 47.616l-138.752 51.2c-18.432 7.168-40.448-3.584-47.616-22.016l-142.848-391.168 146.432 76.8zM530.944 117.248l-175.616-10.752-95.232 142.848-120.832 128 51.2 168.448 25.6 172.032 164.352 61.952 150.016 91.648 150.016-91.648 164.352-61.952 25.6-172.032 51.2-168.448-120.832-128-94.208-143.36-175.616 11.264zM530.944 211.968c142.848 0 256 113.152 256 256s-113.152 256-256 256-256-113.152-256-256 113.152-256 256-256zM600.064 640V322.048h-87.552v208.384c-14.848-10.752-29.184-18.432-40.448-25.6-10.752-7.168-29.184-14.848-51.2-18.432v73.216c29.184 10.752 51.2 22.016 69.632 32.768s29.184 29.184 40.448 51.2h69.632v-3.584z"  horiz-adv-x="1024" />

    
    <glyph glyph-name="baomingrenshu" unicode="&#59196;" d="M553.5841399999999 572.30930625c0 106.97383125 84.96115874999998 194.02636500000003 189.41298187499999 194.095760625 104.45277375-0.06939562499999999 189.4139325-87.12288 189.4139325-194.09671124999997S847.4489449999999 378.2810400000001 742.997121875 378.211644375c-104.45182312499999 0.06939562499999999-189.41298187499999 87.12288-189.41298187499999 194.09671124999997m590.92371-619.177235625c-5.39955 181.23380437499998-126.66127499999999 333.40319999999997-289.68966 382.14459562499997 2.8870481249999997 1.4259374999999999 10.900816875 6.43192875 12.123320625 7.091662499999999 8.42063625 4.798755 28.218352499999998 18.56570625 30.1196025 20.02586625 7.097366249999999 5.492711249999999 25.94255625 22.910062500000002 28.660393125000002 25.726764375 5.195165625 5.353919999999999 32.394448125 40.049831250000004 35.043839999999996 44.360915625 5.3653275 8.656391249999999 10.085180625 17.730106875 14.465660625 27.01296 0.577029375 1.286195625 1.324220625 2.398426875 1.8670274999999998 3.6504 15.043640624999998 33.23575125 23.60021625 70.12190249999999 23.60021625 109.16407124999999 0 145.39048875-115.52185125 263.628275625-257.530966875 263.628275625h-0.33937312499999994c-141.97584374999997 0-257.5319175-118.2387375-257.5319175-263.627325 0-104.297821875 59.69734875-194.376195 145.74412124999998-237.10298625-162.926668125-48.77656875-284.15322-200.91079125000002-289.55276999999995-382.0752-0.067494375-0.86887125-0.5095350000000001-1.5989512499999998-0.5095350000000001-2.468773125 0-0.48672 0.23765624999999999-0.86887125 0.27187875-1.35559125 0.20343375-5.0763375 1.4259374999999999-9.83896875 3.4983-14.21944875 5.703749999999999-12.063431249999999 17.520969375-20.545858125 31.511317500000004-20.545858125 14.296449374999998 0 26.453041875 8.760959999999999 31.988531249999994 21.206542499999998 1.493431875 3.337644375 2.0371893749999996 7.0232174999999994 2.478279375 10.777235625 0.20343375 1.4259374999999999 0.814685625 2.6769599999999993 0.814685625 4.1371199999999995 0 1.53050625-0.6445237500000001 2.8167018749999997-0.848908125 4.311084374999999 0 5.353919999999999 0.135939375 10.6736175-0.067494375 16.027537499999998-0.135939375 3.16368 0.6787462499999999 5.700898124999999 1.2899981249999999 8.3084625h-0.883130625c10.49299875 94.49307562499999 59.11936875 177.4436625 129.411433125 232.61793749999998 1.2899981249999999 0.73008 2.68266375 1.286195625 3.9051674999999992 2.1550668749999997 0.20343375-0.2091375 0.44109000000000004-0.45154687499999996 0.7129687499999999-0.6949068749999999 41.495731875 32.12352 90.190546875 54.7902225 143.265841875 64.211866875 0.9164024999999999 0.13879124999999998 1.8670274999999998 0.24336 2.784380625 0.41732437499999997 7.741890000000001 1.286195625 15.552224999999998 2.3642043750000004 23.464276875 3.094284375 6.961426875 0.5912887499999999 13.990348125 0.8346487499999999 21.019269375 1.0076625000000001 2.4792300000000003 0.07034624999999999 4.8557925 0.31370624999999996 7.369244999999999 0.31370624999999996 11.070028124999999 0 22.004116874999998-0.765253125 32.76804375-1.9126575 0 0.10456875 0.034222499999999996 0.173964375 0.034222499999999996 0.27853312499999994 155.864475-15.57504 281.505729375-142.296204375 299.196860625-301.48881750000004h-0.883130625c0.646425-2.607564375 1.4259374999999999-5.1447825 1.29094875-8.3084625-0.204384375-5.353919999999999-0.06844499999999999-10.6736175-0.06844499999999999-16.027537499999998-0.20343375-1.4943825-0.848908125-2.7805781249999995-0.848908125-4.311084374999999 0-1.46016 0.6112518749999999-2.7111825 0.81563625-4.1371199999999995 0.44109000000000004-3.75496875 1.018119375-7.4395912499999985 2.5125018749999994-10.777235625 5.53453875-12.445582499999999 17.657859374999997-21.206542499999998 31.953358124999998-21.206542499999998 13.990348125 0 25.84179 8.482426875 31.546490625 20.545858125 2.0371893749999996 4.3804799999999995 3.2606437500000003 9.144061875 3.4640775 14.21944875 0.033271875 0.48672 0.27092812499999996 0.86887125 0.27092812499999996 1.35559125 0 0.8698218750000001-0.44109000000000004 1.599901875-0.508584375 2.468773125M1467.27735875-55.49390062500015c-5.39955 181.16345812499998-126.626101875 333.29863125-289.55276999999995 382.0752 86.047723125 42.69256874999999 145.74412124999998 132.76999125 145.74412124999998 237.102035625 0 145.04255999999998-115.04653875 263.07215999999994-256.614564375 263.5931025v-0.73008c-17.4876975-1.4259374999999999-31.34210625-15.957191250000001-31.34210625-34.209191249999996 0-18.252 13.85440875-32.784204375 31.34210625-34.244364374999996v-0.34792875c0.814685625 0 1.6303218750000001-0.13879124999999998 2.4792300000000003-0.17301375H1069.5368093749998c102.68651249999999-2.1902399999999997 185.64375375-88.236061875 185.64375375-193.88947499999998 0-98.664418125-74.67159374999999-190.16777812499998-168.15605624999998-203.86533375v-0.27853312499999994c-8.48908125-1.529555625-16.366910625-4.936595624999999-22.377712499999998-10.7420625-8.387364375-8.100275625-13.752691875-19.330008749999998-13.752691875-32.055074999999995 0-13.662382499999998 6.3843974999999995-25.377885 15.85832625-33.478160624999994 7.402516875-6.39770625 16.673011875-10.6736175 27.097565624999998-10.7420625-0.067494375 0-0.101716875-0.036123749999999996-0.170161875-0.036123749999999996 0.135939375 0 0.373595625 0 0.5095350000000001-0.034222499999999996a307.142184375 307.142184375 0 0 0 23.464276875-3.094284375c0.9173531249999999-0.13879124999999998 1.867978125-0.24336 2.78533125-0.38215125 53.074344375-9.421644374999998 101.769159375-32.0892975 143.26489124999998-64.2128175 0.27187875 0.24336 0.5095350000000001 0.48672 0.7129687499999999 0.6958575 1.2225037499999998-0.9040443749999999 2.61421875-1.4259374999999999 3.9051674999999992-2.1902399999999997 70.292064375-55.174274999999994 118.91843437499999-138.124861875 129.411433125-232.58276437499998h-0.88408125c0.6122025-2.6427374999999995 1.4268881249999998-5.1457331250000005 1.29094875-8.3084625-0.20343375-5.354870624999999-0.067494375-10.6736175-0.067494375-16.027537499999998-0.20343375-1.495333125-0.848908125-2.81575125-0.848908125-4.3462575 0-1.46016 0.6112518749999999-2.7111825 0.814685625-4.101946875 0.442040625-3.78919125 0.9848475-7.4395912499999985 2.4792300000000003-10.777235625 5.53453875-12.446533125 17.691131249999998-21.241715624999998 31.987580625-21.241715624999998 13.990348125 0 25.8075675 8.5176 31.512268125000002 20.581031249999995 2.071411875 4.3453068749999995 3.2939156249999995 9.10888875 3.4983 14.21944875 0.033271875 0.45154687499999996 0.27092812499999996 0.86887125 0.27092812499999996 1.3213687499999998 0 0.9030937499999999-0.44109000000000004 1.6331737499999999-0.5095350000000001 2.5029956249999996M25.787633749999998-55.49390062500015c5.39955 181.16345812499998 126.626101875 333.29863125 289.55276999999995 382.0752C229.29268062500006 369.27386812500004 169.59628250000003 459.351290625 169.59628250000003 563.683335c0 145.04255999999998 115.04653875 263.07215999999994 256.614564375 263.5931025v-0.73008c17.4876975-1.4259374999999999 31.34210625-15.957191250000001 31.34210625-34.209191249999996 0-18.252-13.85440875-32.784204375-31.34210625-34.244364374999996v-0.34792875c-0.81563625 0-1.6303218750000001-0.13879124999999998-2.4792300000000003-0.17301375H423.528183125c-102.68651249999999-2.1902399999999997-185.64470437499998-88.236061875-185.64470437499998-193.88947499999998 0-98.664418125 74.67159374999999-190.16777812499998 168.15605624999998-203.86533375v-0.27853312499999994c8.48908125-1.529555625 16.36786125-4.936595624999999 22.377712499999998-10.7420625 8.388314999999999-8.100275625 13.753642499999998-19.330008749999998 13.753642499999998-32.055074999999995 0-13.662382499999998-6.3843974999999995-25.377885-15.85832625-33.478160624999994-7.402516875-6.39770625-16.6739625-10.6736175-27.097565624999998-10.7420625 0.067494375 0 0.101716875-0.036123749999999996 0.16921124999999998-0.036123749999999996-0.135939375 0-0.373595625 0-0.5095350000000001-0.034222499999999996a307.142184375 307.142184375 0 0 1-23.464276875-3.094284375c-0.9164024999999999-0.13879124999999998-1.8670274999999998-0.24336-2.784380625-0.38215125-53.075295-9.421644374999998-101.77010999999999-32.0892975-143.26489124999998-64.2128175-0.27187875 0.24336-0.5095350000000001 0.48672-0.7129687499999999 0.6958575-1.2234543749999998-0.9040443749999999-2.615169375-1.4259374999999999-3.9061181249999994-2.1902399999999997C154.45092500000004 148.0929000000001 105.82455500000003 65.14136250000001 95.33155625000006-29.315589374999945h0.883130625c-0.6112518749999999-2.6427374999999995-1.4259374999999999-5.1457331250000005-1.29094875-8.3084625 0.204384375-5.354870624999999 0.06844499999999999-10.6736175 0.06844499999999999-16.027537499999998 0.20343375-1.495333125 0.848908125-2.81575125 0.848908125-4.3462575 0-1.46016-0.6112518749999999-2.7111825-0.814685625-4.101946875-0.442040625-3.78919125-0.9848475-7.4395912499999985-2.4792300000000003-10.777235625-5.535489375-12.446533125-17.691131249999998-21.241715624999998-31.988531249999994-21.241715624999998-13.989397499999999 0-25.806616874999996 8.5176-31.511317500000004 20.581031249999995C26.974013749999983-69.1914562500001 25.75341125-64.42882499999996 25.54807625000001-59.31826500000011c-0.033271875 0.45154687499999996-0.27092812499999996 0.86887125-0.27092812499999996 1.3213687499999998 0 0.9030937499999999 0.44109000000000004 1.6331737499999999 0.5095350000000001 2.5029956249999996"  horiz-adv-x="1536" />

    
    <glyph glyph-name="yiwancheng" unicode="&#58916;" d="M512 870.72C243.10932389562504 870.72 25.28000000000003 652.890676104375 25.28000000000003 384c0-268.66944 218.05056000000002-486.71999999999997 486.71999999999997-486.71999999999997 268.89067610437496 0 486.71999999999997 217.829323895625 486.71999999999997 486.71999999999997S780.8021814725 870.72 512 870.72z m298.44785463187503-383.57960684062493l-327.03159315937495-310.57160779124996a42.388886840625 42.388886840625 0 0 0-30.61911220875-13.982138527499998h-0.48672a41.769425368125 41.769425368125 0 0 0-30.397876104375 13.185687791249999l-163.803403895625 172.87409463187498a44.4242614725 44.4242614725 0 0 0 0.79645073625 61.76919220874999 41.54818926375 41.54818926375 0 0 0 60.043549263749995-0.79645073625l132.69757073625-139.99837073625 296.58946926375 277.209163895625a41.592436104375 41.592436104375 0 0 0 60.087796104375 2.035374631875c17.1679414725-16.37149073625 18.052886840625-44.070283895625 2.12386926375-61.724945368125z"  horiz-adv-x="1024" />

    
    <glyph glyph-name="sousuo_sousuo" unicode="&#58952;" d="M985.917-30.774l-173.365 173.365c65.879 79.748 104.018 180.298 104.018 284.318 0 246.177-201.103 443.812-443.812 443.812s-447.279-201.103-447.279-447.279 201.103-443.812 443.812-443.812c107.486 0 208.037 38.14 284.318 104.018l173.365-173.365c17.336-17.336 41.607-17.336 55.477 0 17.336 17.336 17.336 41.607 3.467 58.944zM469.291 52.442c-204.57 0-374.466 166.43-374.466 370.999s166.43 370.999 374.466 370.999c204.57 0 374.466-166.43 374.466-370.999s-166.43-370.999-374.466-370.999z"  horiz-adv-x="1024" />

    
    <glyph glyph-name="youfanye-copy" unicode="&#59669;" d="M678.9256269999998 896a43.326921 43.326921 0 0 1-35.32588299999999-18.168422000000007l-333.79059699999993-468.0751680000002a43.326921 43.326921 0 0 1-0.028884999999981176-50.288113L643.5708600000002-109.76225499999987A43.326921 43.326921 0 0 1 714.222625-59.53191099999992l-315.93990600000006 444.1009379999998L714.1937409999998 827.5145810000001a43.38469 43.38469 0 0 1-35.268114000000025 68.485419z"  horiz-adv-x="1024" />

    
    <glyph glyph-name="daizhifu" unicode="&#59056;" d="M506.0115910247981 869.0898163488935c-261.924432711273 0-479.101408452604-217.17587093511366-479.10140737369164-491.07822532409534 0-261.924432711273 217.17587093511366-479.101408452604 479.10140737369164-479.10140737369164 273.90235438898173 0 491.07822532409534 217.1769757413309 491.07822532409534 479.10140737369164 0 273.90235438898173-217.1769757413309 491.07822532409534-491.07822532409534 491.07822532409534z m219.78696822266068-668.3909908123876l-15.66437087611053-27.130008799878635c-1.435274903487922-2.4874420674657367-4.6856212680591405-3.508695156695158-7.318797417353634-2.25227694330653l-245.03676730895677 116.89762538141242a10.174995532628673 10.174995532628673 0 0 0-4.243997639879298 3.7637327669043663c-2.622136718420743 1.8835219744095493-4.261662671319479 5.01683764055362-4.118134965188222 8.558654326606993l15.016288743910053 370.3969946897286c0.11592589220991593 2.8517810482307535 2.5868066555403852 5.1647813348168405 5.402153913585869 5.1647813348168405h41.77643776867447c2.8672375461487905 0 5.287331748680865-2.3648916536017137 5.4010501862809575-5.1647813348168405l13.450735177599087-331.7903063773835 193.62411261147363-131.02183489269885c2.38034815151975-1.6119241389773942 3.1300034053170163-4.964947352450313 1.711289805964363-7.422580151384889z"  horiz-adv-x="1024" />

    
    <glyph glyph-name="liaotianqipao" unicode="&#58883;" d="M1112.402878 844.431655H162.071942C95.769784 844.431655 44.201439 792.863309 44.201439 726.561151v-508.316547c0-66.302158 51.568345-117.870504 117.870503-117.870503h405.179857v-221.007195l338.877697 221.007195h206.273382c66.302158 0 117.870504 51.568345 117.870503 117.870503v515.683454c0 58.935252-51.568345 110.503597-117.870503 110.503597zM272.57554 549.755396h147.338129v-147.33813h-147.338129zM567.251799 549.755396h147.338129v-147.33813h-147.338129zM861.928058 549.755396h147.338129v-147.33813h-147.338129z"  horiz-adv-x="1281" />

    
    <glyph glyph-name="baozhengjin" unicode="&#58886;" d="M633.263158 538.947368H242.526316c-20.210526 0-33.684211 20.210526-33.684211 40.421053s13.473684 33.684211 33.684211 33.684211h390.736842c20.210526 0 33.684211-13.473684 33.68421-33.684211s-13.473684-40.421053-33.68421-40.421053zM633.263158 350.315789H242.526316c-20.210526 0-33.684211 13.473684-33.684211 33.684211 0 26.947368 13.473684 40.421053 33.684211 40.421053h390.736842c20.210526 0 33.684211-13.473684 33.68421-33.684211s-13.473684-40.421053-33.68421-40.421053zM633.263158 161.684211H242.526316c-20.210526 0-33.684211 13.473684-33.684211 33.68421s13.473684 33.684211 33.684211 33.684211h390.736842c20.210526 0 33.684211-13.473684 33.68421-33.684211 0-13.473684-13.473684-33.684211-33.68421-33.68421zM747.789474 53.894737h-606.31579V754.526316h1145.263158V626.526316c26.947368-13.473684 53.894737-26.947368 74.105263-40.421053V781.473684c0 26.947368-26.947368 53.894737-53.894737 53.894737H121.263158c-26.947368 0-53.894737-26.947368-53.894737-53.894737v-747.789473c0-26.947368 26.947368-53.894737 53.894737-53.894737h673.68421c-20.210526 20.210526-33.684211 47.157895-47.157894 74.105263zM1125.052632 242.526316m-343.578948 0a343.578947 343.578947 0 1 1 687.157895 0 343.578947 343.578947 0 1 1-687.157895 0ZM956.631579 451.368421h74.105263l94.31579-181.894737 94.315789 181.894737h74.105263l-114.526316-202.105263h80.842106v-33.684211h-101.052632v-60.631579h101.052632v-33.68421h-101.052632v-87.578947h-67.368421v87.578947h-101.052632V154.947368h101.052632v47.157895h-94.315789v40.421053h74.105263l-114.526316 208.842105z"  horiz-adv-x="1515" />

    
    <glyph glyph-name="renzheng" unicode="&#58887;" d="M795.467811 456.515021c-136.240343 0-246.111588-114.266094-246.111588-254.901287 0-140.635193 109.871245-254.901288 246.111588-254.901288 136.240343 0 246.111588 114.266094 246.111588 254.901288 0 140.635193-109.871245 254.901288-246.111588 254.901287z m-17.579399-404.32618c-4.39485-4.39485-13.184549-8.7897-21.974249-8.789699s-17.579399 4.39485-21.974249 8.789699l-109.871244 114.266095c-13.184549 13.184549-13.184549 35.158798 0 48.343347 13.184549 13.184549 35.158798 13.184549 48.343347 0l87.896996-92.291845 167.004292 175.793991c13.184549 13.184549 35.158798 13.184549 48.343347 0 13.184549-13.184549 13.184549-35.158798 0-48.343347l-197.76824-197.768241zM479.038627 179.639485c0 52.738197 26.369099 96.686695 52.738197 145.030043 13.184549 21.974249 26.369099 39.553648 35.158798 61.527897 8.7897 13.184549 17.579399 30.763948 21.974249 43.948498l4.39485 8.789699c4.39485 8.7897 8.7897 17.579399 17.579399 21.974249 21.974249 21.974249 35.158798 57.133047 26.369099 87.896996-4.39485 17.579399-8.7897 35.158798-13.184549 57.133047v4.39485c-4.39485 13.184549-8.7897 26.369099-8.7897 35.158798-4.39485 17.579399-4.39485 39.553648-13.184549 57.133047-26.369099 83.502146-105.476395 140.635193-202.163091 140.635194-57.133047 0-114.266094-21.974249-149.424892-57.133048-43.948498-43.948498-57.133047-101.081545-65.922747-145.030043 0-8.7897 0-13.184549-4.39485-21.974248-4.39485-21.974249-4.39485-43.948498-13.184549-61.527897-8.7897-39.553648 0-70.317597 30.763948-96.686696 4.39485-4.39485 8.7897-13.184549 13.18455-17.579399 8.7897-30.763948 26.369099-52.738197 48.343347-74.712446 17.579399-13.184549 26.369099-35.158798 21.974249-65.922747-4.39485-39.553648-35.158798-57.133047-70.317596-70.317597-17.579399-8.7897-39.553648-13.184549-57.133048-17.579399-17.579399-4.39485-35.158798-13.184549-52.738197-17.579399-30.763948-8.7897-61.527897-26.369099-65.922747-65.922747-4.39485-30.763948-4.39485-61.527897-4.39485-92.291845v-26.369099c0-17.579399 8.7897-35.158798 39.553649-39.553648 26.369099-4.39485 48.343348-8.7897 79.107296-13.184549 96.686695-13.184549 184.583691-17.579399 263.690987-17.579399 43.948498 0 87.896996 0 127.450644 4.394849 13.184549 0 26.369099 4.39485 39.553648 4.39485 8.7897 0 17.579399 4.39485 26.369098 4.39485l21.974249 4.39485-30.763948 13.184549c-79.107296 43.948498-118.660944 114.266094-118.660944 206.55794z m-136.240344 118.660944c4.39485 52.738197-8.7897 96.686695-48.343347 123.055794-13.184549 8.7897-21.974249 21.974249-26.369099 39.553648-4.39485 17.579399-13.184549 35.158798-30.763949 48.343348-4.39485 4.39485-8.7897 8.7897-4.394849 26.369099 8.7897 26.369099 13.184549 52.738197 13.184549 79.107296l4.39485 17.579399c8.7897 52.738197 21.974249 83.502146 48.343347 109.871245 21.974249 21.974249 61.527897 39.553648 101.081545 39.553648 52.738197 0 118.660944-26.369099 140.635194-92.291846 4.39485-13.184549 8.7897-35.158798 8.789699-48.343348 0-13.184549 4.39485-26.369099 4.39485-35.158798v-4.39485c4.39485-17.579399 8.7897-39.553648 17.579399-65.922746 0-4.39485 0-13.184549-8.789699-17.5794-13.184549-13.184549-21.974249-26.369099-26.369099-35.158798l-4.39485-8.789699c-8.7897-17.579399-21.974249-35.158798-26.369099-52.738198-8.7897-17.579399-17.579399-35.158798-30.763948-57.133047v-4.39485c-30.763948-48.343348-61.527897-105.476395-61.527897-175.793991s17.579399-127.450644 57.133047-180.188841H417.51073c-79.107296 0-162.609442 4.39485-254.901288 17.579399-26.369099 4.39485-48.343348 4.39485-65.922747 8.789699v8.7897 83.502146s4.39485 4.39485 26.369099 13.184549c13.184549 4.39485 30.763948 8.7897 48.343348 17.579399H175.793991c17.579399 4.39485 39.553648 13.184549 57.133048 21.974249 26.369099 8.7897 101.081545 35.158798 109.871244 123.055794z"  horiz-adv-x="1072" />

    
    </font>
</defs>
</svg>
